<?xml version="1.0" standalone="no"?>
<!DOCTYPE svg PUBLIC "-//W3C//DTD SVG 20010904//EN"
 "http://www.w3.org/TR/2001/REC-SVG-20010904/DTD/svg10.dtd">
<svg version="1.0" xmlns="http://www.w3.org/2000/svg"
 width="1265.000000pt" height="159.000000pt" viewBox="0 0 1265.000000 159.000000"
 preserveAspectRatio="xMidYMid meet">
<metadata>
Created by potrace 1.16, written by Peter Selinger 2001-2019
</metadata>
<g transform="translate(0.000000,159.000000) scale(0.100000,-0.100000)"
fill="#000000" stroke="none">
<path d="M7614 1556 c-385 -73 -599 -276 -654 -620 -8 -46 -11 -127 -8 -208 4
-110 10 -147 32 -213 94 -277 316 -447 644 -495 175 -26 429 1 565 59 l47 20
0 171 0 171 -32 -3 c-30 -3 -37 -10 -71 -78 -121 -237 -278 -319 -441 -232
-129 70 -209 282 -223 592 -17 393 93 698 271 754 87 28 201 -1 264 -67 27
-29 109 -154 154 -236 13 -24 24 -31 48 -31 l30 0 0 170 0 171 -43 18 c-24 10
-81 29 -127 41 -108 28 -348 37 -456 16z"/>
<path d="M12048 1529 c-105 -15 -209 -84 -271 -179 l-29 -45 7 103 7 102 -256
0 c-141 0 -256 -3 -256 -7 0 -4 18 -43 40 -88 74 -150 73 -142 77 -782 l4
-571 22 -6 c29 -8 326 -8 365 0 l31 6 3 572 3 571 28 57 c73 148 227 174 291
50 32 -61 36 -146 36 -699 l0 -553 194 0 194 0 7 63 c4 34 5 273 2 532 -3 408
-6 478 -21 530 -71 242 -256 375 -478 344z"/>
<path d="M291 803 c-160 -400 -291 -733 -291 -739 0 -16 23 -24 48 -17 23 5
29 18 87 171 52 135 78 172 147 206 51 25 56 26 258 26 l205 0 77 -197 c64
-166 80 -199 100 -204 31 -9 285 -11 371 -2 63 6 68 8 63 27 -3 12 -133 343
-290 736 l-284 715 -100 3 -100 3 -291 -728z m227 222 c23 -29 141 -324 149
-372 8 -48 -4 -81 -37 -98 -23 -12 -67 -15 -200 -15 l-170 0 6 26 c18 70 178
451 196 467 27 23 33 22 56 -8z"/>
<path d="M1436 1503 c9 -16 28 -44 41 -64 13 -19 33 -62 46 -95 22 -58 22 -65
25 -677 l3 -617 34 0 35 0 1 493 c0 533 2 559 50 565 14 2 37 -6 52 -18 15
-12 203 -236 419 -498 215 -263 405 -492 421 -509 22 -24 40 -33 62 -33 l32 0
6 143 c8 169 7 837 -2 1127 l-6 205 -32 3 -33 3 0 -283 c0 -289 -6 -342 -39
-372 -46 -42 -79 -11 -377 351 -124 150 -235 279 -247 288 -18 12 -63 15 -265
15 l-244 0 18 -27z"/>
<path d="M4572 788 l3 -743 208 -3 207 -2 0 248 c0 137 3 472 7 745 l6 497
-216 0 -217 0 2 -742z"/>
<path d="M10073 1520 c-32 -13 -29 -33 7 -48 50 -23 81 -73 91 -149 4 -37 8
-339 9 -670 l0 -603 429 0 c236 0 436 3 445 6 9 3 16 17 16 30 l0 24 -142 0
c-117 0 -150 4 -183 19 -108 49 -145 168 -145 474 l0 167 216 0 c193 0 215 2
210 16 -3 9 -6 24 -6 35 0 18 -10 19 -211 19 l-211 0 4 223 c3 221 3 222 31
280 20 40 42 66 70 85 38 26 48 27 191 32 l151 5 3 28 3 27 -458 0 c-252 0
-467 2 -478 5 -11 2 -30 0 -42 -5z"/>
<path d="M2970 1514 c0 -3 11 -20 26 -36 14 -17 36 -53 50 -81 51 -100 54
-135 54 -769 l0 -588 38 0 37 0 0 502 c0 543 1 559 52 566 33 5 67 -33 497
-558 214 -261 397 -483 408 -492 11 -10 33 -18 49 -18 l29 0 0 740 0 740 -35
0 -35 0 0 -292 c0 -259 -2 -297 -18 -328 -21 -43 -50 -49 -97 -20 -30 19 -177
189 -448 521 -48 59 -94 110 -103 113 -20 8 -504 8 -504 0z"/>
<path d="M5284 1509 c-3 -6 16 -30 44 -55 32 -28 56 -59 63 -82 9 -27 14 -215
16 -684 l4 -648 445 0 444 0 0 30 0 30 -147 0 c-135 0 -152 2 -188 23 -94 53
-123 148 -132 429 l-6 208 211 0 212 0 0 35 0 35 -157 0 c-87 0 -182 3 -210 6
l-53 7 0 193 c0 215 8 272 49 336 44 70 80 82 251 88 l145 5 3 28 3 27 -495 0
c-349 0 -497 -3 -502 -11z"/>
<path d="M8559 1475 c22 -24 41 -46 42 -47 1 -2 5 -82 9 -178 14 -312 54 -378
248 -410 72 -12 97 -29 75 -51 -5 -5 -50 -18 -99 -28 -105 -21 -125 -30 -159
-75 -43 -56 -55 -143 -55 -403 l0 -233 169 0 170 0 3 297 c3 296 3 298 28 341
13 24 40 53 60 65 32 20 48 22 170 22 151 0 184 -11 227 -73 36 -54 43 -119
43 -392 l0 -260 171 0 171 0 -5 248 c-3 136 -11 268 -17 294 -24 99 -80 148
-189 166 -159 27 -162 66 -6 87 70 10 105 26 142 68 47 54 64 121 75 302 13
221 13 220 60 266 l40 39 -221 0 -221 0 0 -267 c0 -299 -6 -327 -69 -373 -68
-48 -315 -52 -382 -7 -43 29 -68 66 -79 113 -5 21 -10 150 -10 287 l0 247
-216 0 -217 0 42 -45z"/>
</g>
</svg>
