<svg width="50" height="50" viewBox="0 0 50 50" fill="none" xmlns="http://www.w3.org/2000/svg">
<path d="M16 3C8.83242 3 3 8.83242 3 16V34C3 41.1676 8.83242 47 16 47H34C41.1676 47 47 41.1676 47 34V16C47 8.83242 41.1676 3 34 3H16ZM16 5H34C40.0863 5 45 9.91367 45 16V34C45 40.0863 40.0863 45 34 45H16C9.91367 45 5 40.0863 5 34V16C5 9.91367 9.91367 5 16 5ZM37 11C35.8953 11 35 11.8953 35 13C35 14.1047 35.8953 15 37 15C38.1047 15 39 14.1047 39 13C39 11.8953 38.1047 11 37 11ZM25 14C18.9367 14 14 18.9367 14 25C14 31.0633 18.9367 36 25 36C31.0633 36 36 31.0633 36 25C36 18.9367 31.0633 14 25 14ZM25 16C29.9824 16 34 20.0176 34 25C34 29.9824 29.9824 34 25 34C20.0176 34 16 29.9824 16 25C16 20.0176 20.0176 16 25 16Z" fill="white"/>
</svg>
