<svg width="316" height="122" viewBox="0 0 316 122" fill="none" xmlns="http://www.w3.org/2000/svg">
<path d="M62.5139 120.794C97.0394 120.794 125.028 93.753 125.028 60.3968C125.028 27.0406 97.0394 0 62.5139 0C27.9884 0 0 27.0406 0 60.3968C0 93.753 27.9884 120.794 62.5139 120.794Z" fill="#FDFDFD"/>
<path d="M54.9437 46.7425C54.4994 45.6981 53.9843 44.6783 53.6278 43.6065C53.0023 41.7227 54.089 40.2845 55.9823 40.3912C57.2416 40.4623 57.6746 41.0528 57.2388 42.182C57.0605 42.6468 56.8228 43.1034 56.5285 43.5081C56.1294 44.0549 56.4775 44.3064 56.8511 44.6263C57.2558 44.9736 57.5501 44.9462 57.9038 44.5498C58.8773 43.4589 60.0037 42.6031 61.5658 42.4281C62.2535 42.3515 62.2988 41.72 62.2818 41.277C62.2591 40.6919 61.6762 40.8587 61.28 40.8724C60.9998 40.8806 60.6998 40.9052 60.448 41.0118C59.6273 41.3591 59.1716 41.2907 58.8264 40.3201C58.4047 39.1362 56.7973 38.5675 55.221 38.7972C53.424 39.0597 52.0317 40.2873 51.8251 41.8074C51.7713 42.2039 51.7713 42.6086 51.7458 43.0761C50.5148 42.6332 49.3347 42.2066 48.1518 41.7856C47.8009 41.6598 47.6735 41.3946 47.5773 41.072C44.8039 31.7459 43.6295 22.3569 46.6349 12.8695C47.7952 9.20304 49.7535 5.98771 52.3401 2.98018C53.9815 1.07449 55.7106 0.571416 57.9321 0.549543C62.5931 0.503063 67.2484 0.344486 71.8895 1.05536C79.4342 2.21189 86.5459 4.53043 93.1652 8.20509C97.1951 10.4416 100.993 13.0035 104.397 16.0766C104.873 16.5059 105.292 16.9926 105.736 17.4519C105.951 17.6159 105.903 17.8429 105.906 18.0698C105.951 22.2065 107.875 23.9673 111.498 23.4451C113.547 25.9441 115.409 28.5634 116.96 31.3822C114.019 31.8826 111.387 33.2278 109.579 35.3604C106.641 38.8218 105.082 42.9831 104.378 47.4452C103.65 52.0495 103.413 56.6565 103.922 61.2881C104.414 65.7748 105.173 70.1958 107.632 74.1549C108.481 75.5219 109.44 76.8042 110.68 77.8842C113.79 80.5992 117.511 81.3511 121.555 81.0941C119.77 86.5158 117.067 91.4974 113.702 96.1427C109.225 102.322 103.789 107.59 97.2856 111.782C86.478 118.746 74.612 122.166 61.563 121.994C47.2547 121.808 34.5396 117.436 23.4773 108.802C10.1057 98.3628 2.01485 84.8234 0.381959 68.2628C-2.08011 43.314 7.72289 23.6939 29.2561 9.61863C29.5589 9.41904 29.8957 9.26866 30.2126 9.09915C30.4984 9.49012 30.2126 9.7444 30.074 10.0123C25.4922 18.8053 25.2574 27.9208 27.9515 37.236C28.2288 38.1929 28.5543 38.9366 27.4025 39.6448C26.5959 40.1424 26.1884 41.5067 25.6394 43.6557C25.0027 43.4971 24.6829 42.9613 24.2499 42.5867C22.4953 41.0665 20.769 39.5108 18.4683 38.7534C17.2769 38.3625 16.2864 38.5402 15.3978 39.4643C14.4978 40.3994 14.2403 41.4137 14.6846 42.5976C15.1091 43.735 15.8817 44.6537 16.7335 45.5122C19.4361 48.2299 22.6481 50.2996 25.9281 52.2873C26.3214 52.5252 26.7063 52.7767 27.1959 53.0857C25.9847 53.7556 24.8527 54.3434 23.7631 54.9996C23.0443 55.4316 22.3878 55.9593 21.8755 56.6291C20.7549 58.0974 21.1652 59.6394 22.8632 60.4733C23.9556 61.0119 25.1413 60.9217 26.4544 61.0201C25.3932 63.3824 24.3829 65.6736 23.6556 68.0632C22.3651 72.2956 21.6576 76.6046 22.2604 81.0066C23.2566 88.2821 27.6317 92.9164 34.65 95.3908C39.0421 96.941 43.6295 97.3594 48.5791 97.559C46.8019 99.5521 45.285 101.474 43.8842 103.795C46.8358 103.208 49.5724 102.664 52.7108 102.04C50.928 104.435 49.3998 106.486 47.6311 108.856C50.4186 108.397 52.8637 107.995 55.5153 107.558C54.1088 110.773 52.8608 113.819 53.8825 117.19C54.4003 117.253 54.6918 116.897 55.0258 116.681C61.096 112.742 67.0135 108.618 72.2036 103.601C72.6197 103.651 73.0357 103.703 73.4545 103.749C76.3439 104.08 79.2333 104.422 82.1227 103.716C85.179 102.97 87.3723 100.933 89.557 98.9561C93.9944 94.9479 96.2612 89.6464 98.5846 84.3914C98.9327 83.604 98.5789 82.997 98.2025 82.3572C96.0942 78.7728 93.9717 75.1966 91.903 71.5875C91.6059 71.068 90.9182 70.5677 91.4785 69.7338C91.5549 69.6217 90.406 69.094 90.0268 68.3995C88.691 65.9552 87.211 63.5847 85.7931 61.1842C85.5356 60.7495 85.3007 60.1479 84.664 60.5116C84.1263 60.8178 84.4857 61.2908 84.7149 61.6982C85.2102 62.5758 85.6516 63.4808 86.1554 64.3558C86.5204 64.9928 86.328 65.392 85.6743 65.6381C84.3668 66.1302 83.1075 66.7673 81.6925 66.9586C80.9737 64.6565 81.2822 62.543 82.6434 60.4788C83.4697 59.2238 83.9791 57.7693 84.2565 56.2792C84.4744 55.1035 84.381 54.0563 82.867 53.7638C82.0887 53.6134 82.4991 53.2169 82.6462 52.8642C83.0198 51.9702 83.2971 51.0925 83 50.0891C82.4255 48.1588 82.1651 47.8909 80.1558 47.653C80.1728 47.478 80.17 47.3003 80.2096 47.1281C80.835 44.342 79.6012 43.1554 76.8052 43.9647C75.6619 44.2955 74.8468 44.5142 73.8479 43.4124C72.7951 42.2504 71.0094 42.3652 69.4727 42.1547C69.0511 42.0973 68.4766 42.2941 68.536 41.5094C68.5869 40.8368 68.8615 40.5334 69.5803 40.5306C70.899 40.5279 72.2206 40.4951 73.5111 40.167C74.3403 39.9564 75.144 39.6803 75.7439 39.0597C76.7259 38.0453 77.0655 36.8478 76.5533 35.5354C76.0496 34.2449 74.8638 34.1 73.6328 34.0808C72.4697 34.0644 71.4424 34.521 70.2566 34.9967C70.8736 32.4704 71.4933 30.0671 72.0452 27.6474C72.4697 25.7828 72.8432 23.9017 72.7923 21.9741C72.781 21.5203 72.7838 21.05 72.6593 20.6207C72.3706 19.6118 72.1074 18.5209 70.7717 18.3323C69.385 18.1382 68.5445 18.9201 67.9785 19.9974C66.589 22.6358 66.1673 25.5258 65.7202 28.4048C65.5957 29.2004 65.4853 29.9988 65.3551 30.8874C64.3194 30.264 63.4024 29.6379 62.4176 29.1375C61.0875 28.4595 59.9188 28.6919 58.9736 29.698C58.1161 30.6112 58.0821 31.7459 58.9255 32.9516C59.8226 34.2339 61.0338 35.2127 62.3356 36.0822C63.2128 36.67 63.6628 37.3317 63.4081 38.4335C62.8987 40.6509 62.5195 42.8984 62.0412 45.1239C61.8375 46.0672 62.1007 46.4828 63.1421 46.4172C63.7986 46.3762 64.4609 46.4582 65.1202 46.4637C65.9155 46.4719 66.8437 46.7043 67.4663 46.3871C68.0776 46.0754 67.9247 45.0857 68.0294 44.3775C68.1059 43.858 68.4172 43.694 68.9152 43.7487C69.5237 43.817 70.1349 43.8526 70.7377 43.951C71.7537 44.1178 73.0356 44.1615 73.2564 45.3263C73.4913 46.5512 72.6225 47.5491 71.7593 48.424C71.3518 48.8369 70.8934 48.6428 70.4406 48.5361C69.1586 48.2381 67.8795 47.9428 66.5975 47.653C66.1447 47.5491 65.723 47.5382 65.7315 48.167C65.7372 48.6291 65.5079 49.1431 66.3598 49.2525C67.6615 49.422 68.9548 49.6954 70.2255 50.018C70.9443 50.2012 71.6348 50.5293 72.2942 50.8656C72.8093 51.1281 73.2253 51.5491 73.03 52.1944C72.8489 52.7877 72.2631 52.867 71.7622 52.8806C70.2368 52.9189 68.7907 52.4815 67.3418 52.0796C66.7362 51.91 66.1221 51.3577 65.5419 52.301C64.9731 53.2279 65.7825 53.4904 66.1702 53.9743C66.572 54.4774 67.0588 54.9285 67.4012 55.4644C68.0351 56.4569 67.6898 57.0557 66.473 57.001C64.6618 56.9189 62.9893 56.271 61.3253 55.6284C60.7904 55.4207 60.9064 54.9641 60.9376 54.5758C60.9885 53.9306 60.8611 53.5587 60.0433 53.5806C59.2594 53.5997 59.2594 54.018 59.2566 54.5594C59.2367 56.9107 58.6906 59.1609 57.751 61.3154C57.4114 62.0946 56.9671 63.1582 55.9427 62.9422C54.8843 62.7208 55.238 61.5834 55.255 60.8151C55.2776 59.8663 55.405 58.9067 55.6059 57.9771C55.7276 57.4084 55.6144 57.1678 55.0569 56.9736C54.4682 56.7686 54.1117 56.8041 53.823 57.4111C53.0957 58.9422 52.3203 60.4514 51.3468 61.854C50.9619 62.4063 50.6591 63.0461 49.8979 63.366C49.3941 62.1985 49.6007 61.0147 49.629 59.8499C49.6432 59.2566 50.0705 58.4309 49.1677 58.2669C48.1291 58.0782 48.1037 59.0024 47.9112 59.7132C47.3113 61.9388 46.3123 63.9894 44.7813 65.7638C43.9068 66.7755 42.8824 67.5902 41.3683 67.1938C40.0298 66.8411 38.6742 65.1487 38.5384 63.7242C38.4167 62.4501 38.8101 61.2963 39.4298 60.1999C40.4571 58.3817 41.807 56.8041 43.4059 55.4425C43.9832 54.9504 43.9351 54.6387 43.4767 54.1192C42.922 53.4904 42.5428 53.895 42.24 54.2723C41.5608 55.1199 40.9495 55.1008 40.1911 54.3543C39.6336 53.8048 38.9516 53.3755 38.3431 52.8724C37.0215 51.7815 37.1489 50.5484 38.6884 49.7091C39.6053 49.2087 40.6184 48.9627 41.6627 48.9353C43.1682 48.8943 44.6794 48.8943 46.1849 48.9271C46.7707 48.9408 47.0481 48.7931 47.0792 48.1916C47.1047 47.6858 47.1047 47.3495 46.4453 47.2237C45.2907 47.005 44.1474 46.7015 43.1258 46.1055C42.5145 45.7473 41.8806 45.3427 41.9768 44.5334C42.0673 43.7569 42.7126 43.4096 43.3861 43.1499C44.436 42.7453 45.5142 42.8437 46.584 43.0651C49.1083 43.5901 51.3525 44.722 53.5117 46.0481C53.9645 46.327 54.3324 46.83 54.9833 46.7234C55.0116 46.7754 55.0399 46.8246 55.0682 46.8765C55.0682 46.8492 55.0795 46.8109 55.0682 46.8C55.0229 46.7726 54.9805 46.7589 54.9437 46.7425ZM102.431 23.2865C101.601 21.7472 101.477 19.9509 100.008 18.7014C101.443 18.2721 102.051 17.3343 101.856 16.0001C101.644 14.5619 100.551 13.9303 99.1987 13.7608C98.2252 13.6378 97.2234 13.7143 96.2357 13.7007C95.8169 13.6952 95.4688 13.7936 95.4688 14.283C95.4631 17.1047 95.466 19.9263 95.4688 22.7479C95.4688 23.1935 95.7405 23.4041 96.1819 23.4232C96.7819 23.4506 96.8583 23.0732 96.8555 22.6194C96.847 21.7991 96.9092 20.9762 96.8385 20.1641C96.7592 19.2619 97.1922 19.0924 98.0044 19.1252C98.8308 19.158 99.3345 19.5845 99.6458 20.2243C99.9854 20.9188 100.305 21.646 100.472 22.3925C100.721 23.5025 101.378 23.6009 102.431 23.2865ZM85.2639 18.5346C85.2639 19.8087 85.2668 21.0828 85.2639 22.3569C85.2611 22.8819 85.2583 23.4123 86.0139 23.4123C86.8657 23.4123 86.6223 22.767 86.6478 22.3132C86.6789 21.7691 86.6535 21.2222 86.6563 20.6754C86.6619 19.0896 86.8459 18.9338 88.4165 19.199C89.7013 19.415 91.1531 18.4772 91.5776 17.1593C91.9908 15.8743 91.3597 14.5236 89.99 14.0725C89.0702 13.769 88.0798 13.5421 87.1147 13.5284C85.3686 13.5011 85.2696 13.6788 85.2668 15.3931C85.2639 16.4403 85.2639 17.4874 85.2639 18.5346Z" fill="#62BA47"/>
<path d="M205.846 76.5883C205.272 77.5725 204.669 78.535 203.749 79.2704C200.664 81.7448 195.754 81.455 192.494 78.5623C190.032 76.3777 188.807 73.5534 188.159 70.4638C187.083 65.3291 187.194 60.2437 189.093 55.2812C189.987 52.9408 191.345 50.8766 193.462 49.3673C196.971 46.8656 200.761 47.0078 204.069 49.8431C204.069 46.5758 204.069 43.4069 204.069 40.2408C204.069 37.7829 204.103 35.3249 204.049 32.8669C204.032 32.0795 204.273 31.7623 205.082 31.5955C206.828 31.2346 208.569 30.819 210.269 30.3023C211.254 30.0043 211.441 30.2339 211.432 31.1663C211.39 35.4452 211.413 39.7241 211.413 44.003C211.413 53.8814 211.415 63.7598 211.41 73.6381C211.41 75.1036 211.364 76.5719 212.545 77.7284C213.014 78.1877 212.488 78.349 212.253 78.5486C211.331 79.3279 210.326 80.0223 209.463 80.8562C208.682 81.6108 208.167 81.2827 207.623 80.6621C206.865 79.7981 206.565 78.7509 206.367 77.6682C206.293 77.28 206.409 76.8343 205.846 76.5883ZM204.049 65.0831C204.049 62.8712 204.075 61.3237 204.041 59.7789C204.012 58.5458 203.82 57.3291 203.206 56.2218C202.377 54.7289 200.67 53.9962 199.017 54.4501C197.747 54.7973 196.977 55.7023 196.431 56.8096C195.435 58.8274 195.228 61.0065 195.149 63.1883C195.044 66.1029 195.098 69.0229 196.286 71.7762C197.181 73.8432 198.531 74.6252 200.546 74.401C202.269 74.2096 203.39 73.0093 203.811 70.956C204.261 68.7878 203.97 66.5978 204.049 65.0831Z" fill="#383F98"/>
<path d="M121.547 81.0886C117.503 81.3456 113.781 80.5937 110.671 77.8787C109.435 76.7988 108.475 75.5137 107.623 74.1494C105.164 70.1931 104.406 65.7693 103.913 61.2826C103.404 56.651 103.642 52.044 104.369 47.4397C105.074 42.9777 106.636 38.8163 109.57 35.3549C111.382 33.2223 114.013 31.8771 116.951 31.3768C119.017 31.0596 121.083 31.0952 123.12 31.5217C127.309 32.3939 129.485 35.1909 130.792 38.9202C131.401 40.6509 131.412 41.9879 129.765 43.1882C128.537 44.0822 127.481 45.2032 126.315 46.2559C125.599 43.355 124.832 40.3092 120.967 39.642C118.972 39.0214 117.248 39.5655 115.771 40.8779C114.328 42.1574 113.663 43.869 113.232 45.6598C111.888 51.2566 111.939 56.9217 112.48 62.5923C112.7 64.8944 113.164 67.1719 114.186 69.3045C116.187 73.4795 121.448 74.2424 124.298 70.7618C125.664 69.4494 125.863 67.6586 126.27 66.174C127.841 67.5875 129.451 69.0338 131.058 70.4802C131.531 70.9067 131.29 71.3934 131.186 71.8773C130.062 76.9847 127.187 80.3859 121.547 81.0886Z" fill="#383F98"/>
<path d="M143.754 50.4172C148.338 44.9381 155.62 48.1753 157.55 52.8834C158.322 54.77 158.769 56.703 158.772 58.7262C158.786 65.5533 158.766 72.3832 158.806 79.2103C158.812 80.0852 158.594 80.4024 157.643 80.3586C155.951 80.2848 154.247 80.2848 152.555 80.3586C151.612 80.3996 151.38 80.0961 151.386 79.2158C151.423 73.1624 151.403 67.1063 151.409 61.053C151.409 59.7269 151.327 58.4063 150.84 57.1568C150.345 55.88 149.47 54.9914 147.948 54.9121C146.428 54.8328 145.316 55.4562 144.58 56.7276C143.943 57.8322 143.756 59.0325 143.756 60.2792C143.759 66.5157 143.728 72.7523 143.773 78.9888C143.782 80.0196 143.572 80.4461 142.398 80.3668C140.802 80.2602 139.192 80.2766 137.593 80.3614C136.557 80.416 136.364 80.0415 136.37 79.1255C136.404 69.8405 136.39 60.5526 136.39 51.2675C136.39 45.2142 136.413 39.1581 136.364 33.1048C136.356 32.1642 136.599 31.7295 137.581 31.5354C139.237 31.2073 140.89 30.8218 142.497 30.316C143.677 29.9441 143.776 30.3652 143.771 31.3467C143.731 37.3563 143.751 43.3632 143.751 49.3728C143.754 49.6736 143.754 49.977 143.754 50.4172Z" fill="#383F98"/>
<path d="M81.6794 66.9559C83.0944 66.7645 84.3537 66.1275 85.6612 65.6353C86.3149 65.3893 86.5073 64.9901 86.1423 64.353C85.6413 63.4781 85.197 62.5731 84.7018 61.6955C84.4726 61.2881 84.116 60.8151 84.6509 60.5088C85.2876 60.1452 85.5225 60.7467 85.78 61.1814C87.2006 63.582 88.6807 65.9525 90.0136 68.3968C90.3929 69.0913 91.5418 69.6162 91.4654 69.731C90.9051 70.5649 91.5928 71.0653 91.8899 71.5848C93.9586 75.1911 96.0811 78.7701 98.1894 82.3545C98.5658 82.9915 98.9195 83.5985 98.5715 84.3887C96.2481 89.6437 93.9813 94.9451 89.5439 98.9534C87.3591 100.927 85.1659 102.964 82.1096 103.713C79.2202 104.419 76.3308 104.08 73.4414 103.746C73.0254 103.697 72.6094 103.648 72.1905 103.599C71.4859 103.328 70.7614 103.219 70.0058 103.317C69.7992 103.224 69.6039 103.093 69.386 103.044C64.043 101.832 58.8784 100.118 53.8608 97.9773C53.1166 97.6601 52.2025 97.4633 52.0723 96.4462C51.4384 95.6423 50.8016 94.8385 50.1677 94.0319C49.9244 93.3976 49.4291 92.9328 49.0018 92.4243C48.4471 91.3333 47.949 90.2042 46.8001 89.5343C46.1775 87.686 44.8389 86.2807 43.656 84.7797C43.4013 84.0032 42.9343 83.3688 42.2778 82.863C41.808 81.7393 41.0241 80.8152 40.2572 79.8801C40.0082 79.4591 39.7591 79.038 39.5073 78.6197C39.2809 78.2424 38.9215 77.8842 39.2469 77.4057C39.5695 76.9327 40.0336 77.0476 40.4893 77.1569C40.5883 77.6709 41.0241 77.9526 41.3467 78.3135C41.576 79.0243 42.0769 79.5684 42.5381 80.1371C43.1805 81.0284 43.8201 81.9198 44.4625 82.8084C45.0823 83.9786 45.8888 85.0257 46.7095 86.0647C47.2331 86.8467 47.55 87.7817 48.4613 88.2793L48.4471 88.2602C48.433 88.5035 48.4839 88.7195 48.7245 88.8535C48.9848 89.4851 49.3357 90.0592 49.8593 90.524C50.0715 90.8877 50.2866 91.2513 50.4988 91.615C50.6658 91.6888 50.6913 92.0552 50.9969 91.8392L50.9771 91.8228C50.9262 92.5391 51.3931 92.9273 51.9874 93.414C52.0129 92.8289 52.0525 92.3969 51.8063 91.995C51.8091 91.3826 51.8091 90.7674 51.8119 90.1549C51.8063 89.6355 51.8035 89.116 51.7978 88.5965C51.795 88.3094 51.7921 88.0196 51.7893 87.7325C51.7752 87.2021 51.761 86.6717 51.7469 86.1413C51.9591 85.362 51.461 84.6402 51.5431 83.8719C51.5318 83.1091 51.5205 82.3436 51.512 81.5807C51.4214 81.4495 51.3337 81.3155 51.2431 81.1843L51.2601 81.2198C51.1752 80.9382 50.9488 80.8945 50.6884 80.9081L50.6998 80.9245C50.7366 80.3859 50.3007 80.1234 49.9725 79.8227C46.8369 76.9601 43.6984 74.1029 40.543 71.2594C38.8309 69.7174 37.0876 68.2081 35.3585 66.6825C35.1944 66.3681 35.0274 66.0509 34.8633 65.7365C35.2482 65.2717 35.6557 64.878 36.3207 65.31C37.4386 66.3052 38.5536 67.3031 39.6714 68.2984C39.7818 68.5362 39.9912 68.6073 40.2402 68.6155L40.2232 68.61C40.3251 69.5287 41.2449 69.7365 41.7967 70.2478C45.1474 73.3483 48.5433 76.4023 51.8968 79.5001C52.3723 79.9403 52.7543 80.118 53.3543 79.7707C53.7533 79.5411 54.2146 79.4153 54.6391 79.2294C57.6785 77.9033 60.6697 76.5035 62.9592 74.051C63.6299 73.9525 64.06 73.5424 64.4025 73.0147C67.0824 71.1583 69.8586 69.485 73.0735 68.6183C73.6734 68.662 74.2366 68.528 74.7884 68.3202C76.6364 67.9949 78.4815 67.6722 80.3295 67.3469C80.7851 67.2238 81.286 67.2621 81.6794 66.9559ZM58.3067 94.3764C58.4397 95.5302 58.5869 96.4708 58.6435 97.414C58.6944 98.2644 59.0934 98.7346 59.9453 98.9588C61.6715 99.4127 63.3808 99.9267 65.0986 100.405C70.3171 101.86 75.6091 102.431 81.02 101.682C82.0586 101.537 83.0434 101.261 83.949 100.75C87.8572 98.5514 91.072 95.6861 93.1945 91.7708C94.2642 89.794 95.3085 87.8063 96.4065 85.846C96.899 84.9656 96.9159 84.1863 96.4065 83.2786C93.503 78.1221 90.6561 72.9382 87.7751 67.7734C87.4865 67.2567 87.3167 66.472 86.3545 66.986C85.4914 67.4453 85.8168 67.9703 86.1394 68.5745C88.4487 72.9026 90.7409 77.2389 93.036 81.5725C93.5058 82.4611 93.9841 83.3497 94.4256 84.2547C94.7793 84.9792 94.6067 85.6655 93.8681 86.0018C93.087 86.3572 93.0078 85.5534 92.7078 85.1433C92.5068 84.8671 92.5125 84.4461 92.0371 84.2711C89.425 87.2622 86.5781 90.0428 83.3604 92.4379C80.5616 94.5186 77.4401 95.6615 73.8262 95.7052C68.6644 95.7681 63.5648 95.4263 58.3067 94.3764ZM89.3939 78.7619C89.1788 78.9423 89.0005 79.0763 88.8392 79.2267C84.5829 83.1529 79.6758 86.0374 74.0696 87.7817C69.2304 89.2882 64.2581 89.8597 59.1812 89.6601C58.7312 89.6437 58.1709 89.4523 57.8369 89.8542C57.1408 90.6936 58.185 93.0531 59.2915 93.209C61.6631 93.5425 64.0232 93.9854 66.4061 94.1632C70.3086 94.453 74.2253 94.5323 77.992 93.2008C83.4764 91.265 87.345 87.388 90.8768 83.1173C91.1626 82.7728 91.2617 82.3764 91.0409 81.969C90.4891 80.9327 90.1665 79.7762 89.3939 78.7619ZM57.404 83.5083C57.9134 83.3825 58.369 83.2814 58.8189 83.1556C60.8933 82.576 62.9762 82.0291 65.0335 81.3975C72.1339 79.2185 78.8862 76.2847 85.2621 72.5581C85.5904 72.3667 86.1338 72.2601 85.8196 71.675C85.2338 70.5896 84.8659 69.2799 83.9915 68.4952C83.3519 67.9211 82.1379 68.6811 81.1757 68.7987C80.9436 68.826 80.7059 68.8479 80.4767 68.8862C76.2968 69.5779 72.1339 70.3435 68.4352 72.5062C64.5326 74.7864 61.0518 77.6928 56.9936 79.7516C56.388 80.0606 56.4757 83.172 57.0587 83.4727C57.1662 83.5274 57.3219 83.5001 57.404 83.5083ZM61.0688 88.2848C61.0688 88.2793 61.0688 88.2766 61.0688 88.2711C61.7763 88.2711 62.4837 88.3012 63.1884 88.2629C63.9384 88.2219 64.6798 88.1098 65.4297 88.0469C73.4697 87.3716 80.5248 84.5035 86.5186 79.2485C88.7996 77.2499 88.7826 77.269 87.3761 74.6087C86.9827 73.8678 86.6969 73.7147 85.9159 74.2068C77.6184 79.4317 68.5201 82.7701 58.8416 84.6265C57.353 84.9109 57.0417 85.455 57.2398 86.7701C57.4096 87.9048 57.8143 88.4871 59.0991 88.3012C59.7358 88.2082 60.4094 88.2848 61.0688 88.2848ZM53.2467 83.1529C53.5439 87.3224 53.9061 91.4373 54.0872 95.5603C54.141 96.8262 54.8485 97.1871 55.8135 97.5015C56.3965 97.6902 56.5465 97.4769 56.4786 96.8973C56.3031 95.4099 56.2125 93.9116 56.0597 92.4215C55.689 88.7687 55.2815 85.116 54.9419 81.4604C54.8598 80.5882 54.4749 80.6101 53.8495 80.8972C52.6723 81.4358 53.4873 82.4392 53.2467 83.1529Z" fill="#707373"/>
<path d="M267.482 53.3619C267.748 52.8151 267.881 52.5854 267.978 52.3421C270.641 45.5942 279.283 46.6387 282.408 51.0762C283.944 53.258 284.649 55.6914 284.671 58.2778C284.728 65.2881 284.68 72.2984 284.722 79.3087C284.728 80.1754 284.451 80.3887 283.602 80.3586C281.907 80.2985 280.206 80.2766 278.513 80.3641C277.466 80.4188 277.297 80.0278 277.302 79.1228C277.339 72.9792 277.319 66.8329 277.322 60.6866C277.322 59.448 277.203 58.2232 276.728 57.0721C276.227 55.8554 275.358 55.016 273.909 54.9149C272.384 54.8082 271.263 55.4262 270.539 56.7057C269.842 57.9388 269.673 59.2813 269.675 60.6647C269.681 66.7646 269.644 72.8644 269.707 78.9642C269.718 80.1262 269.364 80.4379 268.212 80.3641C266.664 80.2684 265.099 80.2657 263.551 80.3668C262.445 80.4379 262.238 80.0497 262.244 79.0599C262.284 71.2759 262.272 63.4918 262.261 55.7078C262.258 54.122 262.374 52.4952 261.146 51.1855C260.707 50.718 261.205 50.5457 261.452 50.3379C262.303 49.6189 263.246 48.99 264.024 48.2053C264.952 47.2703 265.569 47.6968 266.164 48.4815C267.182 49.8294 267.318 51.4261 267.482 53.3619Z" fill="#383F98"/>
<path d="M251.876 68.8589C253.268 70.3791 254.479 71.7051 255.696 73.0284C255.92 73.2718 256.07 73.5096 256.061 73.8733C255.971 77.2718 253.328 80.2739 249.844 80.9027C244.382 81.8925 239.741 79.9758 237.324 75.1638C233.654 67.8582 233.671 60.3612 237.48 53.0939C239.865 48.5416 244.481 46.6715 249.346 47.8417C253.175 48.7631 255.232 51.407 256.367 54.8492C257.295 57.6654 257.321 60.5772 257.239 63.5C257.21 64.4816 256.622 64.4351 255.925 64.4323C251.825 64.4214 247.721 64.4597 243.621 64.405C242.593 64.3913 242.192 64.5964 242.285 65.6736C242.463 67.7188 242.608 69.7612 243.519 71.6559C244.484 73.6682 245.941 74.5513 247.812 74.308C249.83 74.0455 251.216 72.7031 251.61 70.6224C251.7 70.1385 251.76 69.6463 251.876 68.8589ZM247.085 58.7946C247.883 58.7946 248.681 58.7946 249.482 58.7946C251.669 58.7946 251.765 58.6715 251.182 56.569C251.086 56.2218 250.953 55.88 250.812 55.5464C250.206 54.1192 249.012 53.5177 247.498 53.4056C246.097 53.3017 245.056 53.9087 244.3 55.016C243.697 55.8991 243.377 56.8916 243.117 57.9087C242.964 58.5102 243.086 58.8411 243.844 58.8055C244.923 58.7563 246.004 58.7918 247.085 58.7946Z" fill="#383F98"/>
<path d="M299.835 69.5397C299.985 70.2451 300.079 70.9697 300.299 71.6532C301.233 74.5295 304.295 75.9458 307.202 74.8603C308.583 74.3463 309.251 73.321 309.304 71.9102C309.358 70.4967 308.67 69.5616 307.287 69.1378C306.347 68.8507 305.391 68.6019 304.431 68.3886C298.667 67.1063 295.859 63.4946 296.168 57.7338C296.354 54.2614 297.45 51.1937 300.526 49.1076C305.962 45.422 313.507 48.0085 315.174 54.0837C315.386 54.8575 315.327 55.4453 314.636 56.0085C313.464 56.9682 312.375 58.0209 311.155 59.1227C310.985 58.2697 310.898 57.6025 310.714 56.9627C309.958 54.3571 307.454 53.0475 304.748 53.7884C303.342 54.1712 302.623 55.0598 302.538 56.446C302.456 57.7994 303.064 58.7563 304.406 59.161C305.659 59.541 306.944 59.8254 308.221 60.1343C313.156 61.3319 315.53 64.0551 315.921 68.971C316.051 70.6142 316.06 72.2602 315.655 73.8596C314.336 79.0709 309.486 81.9034 303.585 81.0586C299.484 80.4707 296.785 78.4119 295.63 74.5049C295.406 73.7503 295.522 73.2663 296.094 72.6976C297.235 71.563 298.268 70.3271 299.346 69.1323C299.51 69.269 299.671 69.4057 299.835 69.5397Z" fill="#383F98"/>
<path d="M36.325 65.3072C35.66 64.8753 35.2524 65.269 34.8676 65.7338C32.9772 66.3052 31.1207 66.9696 29.4737 68.0441C27.5719 69.2827 27.6285 71.0052 29.5529 72.1617C30.4755 72.7167 31.4405 73.2143 32.5074 73.4167C33.2205 73.5506 33.5714 73.7365 33.413 74.5322C33.2913 75.1446 33.7639 75.5657 34.3186 75.7707C35.1053 76.0605 35.9316 76.2492 36.724 76.5226C37.1712 76.6757 37.9805 76.3285 37.9069 77.28C37.8334 78.2369 37.1315 78.1084 36.475 78.1057C35.7222 78.1029 34.9638 78.0701 34.2167 78.1412C33.6733 78.1932 32.8328 77.7803 32.847 78.9341C32.8611 80.0086 33.5686 79.7543 34.1912 79.7653C36.2146 79.8008 38.2381 79.8418 40.2586 79.8801C41.0256 80.8152 41.8095 81.7393 42.2792 82.863C41.2689 83.2896 41.3255 83.7817 42.2255 84.2492C42.6726 84.4816 43.1792 84.6074 43.6574 84.7824C44.8375 86.2862 46.1789 87.6915 46.7987 89.537C46.578 89.6081 46.3572 89.6847 46.1337 89.7503C45.6328 89.9007 45.1205 90.0647 45.1064 90.6854C45.0894 91.3334 45.7261 91.2759 46.111 91.4263C47.0591 91.7981 48.0354 92.0989 49.0004 92.427C49.4277 92.9383 49.9202 93.4031 50.1664 94.0347C50.0107 96.0716 50.5314 95.9568 48.1599 95.9021C43.9121 95.8037 39.7181 95.3607 35.6628 94.0319C26.5163 91.0353 23.0949 84.3149 23.6722 75.8719C24.0175 70.8247 25.5598 66.0728 27.8408 61.5287C28.2511 60.7139 28.7888 60.1507 29.6038 59.6968C30.5349 59.1801 31.3952 58.5239 32.2102 57.8431C32.6743 57.4548 32.9545 57.4822 33.3903 57.8404C33.8629 58.2286 33.6648 58.5048 33.3875 58.8629C32.8809 59.5164 32.3772 60.1753 31.9301 60.867C31.3782 61.7228 31.1546 62.636 31.8027 63.5519C32.4508 64.4651 33.4101 64.785 34.4997 64.7276C35.0091 64.7003 35.5156 64.5472 36.0194 64.4378C36.3533 64.3667 36.7325 64.0167 36.9419 64.5882C37.157 65.1541 36.5401 65.0721 36.325 65.3072Z" fill="#62BA47"/>
<path d="M183.838 55.2648C183.838 63.1418 183.807 71.0188 183.872 78.8931C183.883 80.1317 183.518 80.4543 182.298 80.3641C180.846 80.2574 179.366 80.2356 177.92 80.3695C176.579 80.4926 176.401 79.9731 176.406 78.8384C176.452 70.051 176.432 61.2635 176.432 52.4788C176.432 46.059 176.463 39.6393 176.401 33.2196C176.389 32.1287 176.78 31.7076 177.813 31.4971C179.423 31.169 181.028 30.7917 182.595 30.3214C183.589 30.0234 183.877 30.171 183.86 31.2291C183.804 35.3249 183.838 39.4233 183.838 43.5218C183.838 47.4343 183.838 51.3496 183.838 55.2648Z" fill="#383F98"/>
<path d="M124.303 70.7618C121.454 74.2424 116.193 73.4795 114.192 69.3045C113.17 67.1719 112.706 64.8944 112.486 62.5923C111.945 56.9217 111.894 51.2566 113.238 45.6598C113.668 43.8717 114.334 42.1574 115.777 40.8779C117.254 39.5682 118.978 39.0241 120.973 39.642C124.765 49.5122 125.922 59.6558 124.343 70.081C124.309 70.3052 124.318 70.5349 124.303 70.7618Z" fill="#62BA47"/>
<path d="M39.0957 31.7158C38.3656 31.3084 37.6638 30.8354 36.8997 30.5073C35.7564 30.0179 35.08 30.5073 35.1083 31.7268C35.1309 32.6646 35.5526 33.4875 35.9516 34.3078C37.1968 36.8724 38.841 39.2046 40.5051 41.5231C40.9211 42.1028 41.2069 42.5183 40.6805 43.3058C39.7523 44.692 40.1626 45.6489 42.104 47.4316C40.822 47.7897 39.5231 47.8526 38.3175 48.3065C37.0242 48.7932 36.1186 49.504 36.2403 51.2429C34.7234 50.0645 33.4245 49.0337 32.1001 48.0358C31.6105 47.6667 31.718 47.3167 31.9359 46.8519C33.2547 44.0686 32.7113 41.6489 30.6823 39.2839C29.2531 37.6188 28.9786 35.3741 28.5173 33.2934C26.7995 25.5312 27.5948 18.0671 31.0784 10.8025C32.4991 7.83872 34.7348 6.23105 37.9213 5.33153C38.0713 9.89751 38.9005 14.3869 39.4212 19.1006C38.4505 18.3733 37.6609 17.7472 36.8318 17.1757C36.2969 16.8066 35.7083 16.4157 35.0178 16.8394C34.3074 17.2742 34.3074 17.985 34.4037 18.6713C34.6499 20.4376 35.2045 22.1327 35.8894 23.7787C36.9761 26.3897 38.1081 28.9817 39.2203 31.5846C39.1778 31.6256 39.1382 31.6721 39.0957 31.7158Z" fill="#62BA47"/>
<path d="M80.3318 67.3415C78.4839 67.6668 76.6388 67.9895 74.7908 68.3148C74.5983 67.5219 75.2917 67.6477 75.7134 67.4618C77.2076 66.8111 78.6452 66.1002 78.7244 64.2191L78.7018 64.2355C79.1404 64.1316 78.9367 63.7734 79.0046 63.5246C79.0074 63.202 79.0103 62.8794 79.0131 62.5568C79.0923 59.2649 76.0841 56.8753 72.7306 57.567C68.7997 58.3763 67.0338 61.5834 68.5875 65.2253C68.9214 66.0045 68.9441 66.2888 67.9932 66.4857C66.8018 66.7318 65.6924 67.2704 64.634 67.8637C61.7135 69.496 61.2353 71.2868 62.9615 74.0455C60.6721 76.4981 57.6808 77.8979 54.6414 79.224C54.2141 79.4099 53.7528 79.5357 53.3566 79.7653C52.7567 80.1098 52.3746 79.9348 51.8992 79.4947C48.5457 76.3969 45.1497 73.3429 41.799 70.2424C41.2472 69.7311 40.3275 69.5233 40.2256 68.6046C42.5971 69.4221 44.4734 68.6457 45.9761 66.863C46.7373 65.9608 47.3911 64.9683 48.0929 64.0141C49.5588 65.5752 50.4389 66.1549 53.4811 61.7611C53.5717 61.9525 53.6708 62.1002 53.7075 62.2615C54.2679 64.7468 56.096 65.31 58.0883 63.5602C59.7156 62.133 60.2589 60.1726 60.5561 58.1794C60.6947 57.2608 60.9806 57.1405 61.7899 57.4275C63.1172 57.9006 64.501 58.1904 65.9047 58.3681C67.0027 58.5075 68.1375 58.5485 68.9186 57.649C69.7733 56.6675 69.1761 55.6777 68.712 54.7235C68.6356 54.5649 68.5875 54.3954 68.4969 54.1466C69.7393 54.2341 70.8967 54.3489 72.057 54.3872C73.506 54.4364 74.3578 53.6381 74.6776 52.3558C74.9719 51.1773 74.9125 50.0618 73.4324 49.5751C73.1805 49.4931 72.8098 49.3427 73.1268 49.0229C74.2531 47.8909 74.5785 45.9634 76.6104 45.7228C77.1566 45.6571 77.7509 45.3755 78.2009 45.8677C78.5914 46.2969 78.3764 46.8137 78.2235 47.2949C77.6434 49.1459 76.5595 50.7481 75.5209 52.3722C75.2662 52.7713 74.7879 53.1295 75.5435 53.5697C76.1916 53.9497 76.3473 53.5013 76.6133 53.1459C77.4651 52.0003 78.3197 50.8492 79.4404 49.9278C79.8592 49.5833 80.312 49.1049 80.9233 49.4111C81.495 49.6982 81.744 50.2723 81.8232 50.8821C81.9506 51.8527 81.5714 52.6948 80.946 53.3975C80.3036 54.1165 79.5621 54.7563 78.8405 55.407C78.5348 55.6832 78.0735 55.8554 78.6027 56.3284C78.9678 56.6538 79.214 57.1678 79.8649 56.6893C80.4224 56.2792 81.045 55.9429 81.6676 55.6203C81.8997 55.5 82.2704 55.3934 82.46 55.4918C82.8137 55.675 82.6213 56.0523 82.5392 56.3476C82.1204 57.8978 81.5148 59.4043 80.6375 60.7358C79.5112 62.4501 79.2536 64.1371 80.0121 66.01C80.1819 66.4338 80.23 66.8986 80.3318 67.3415ZM53.7217 64.9519C50.7842 64.8862 48.3165 67.0107 48.2089 69.6983C48.0929 72.5336 50.4333 75.1474 53.1161 75.1802C56.2658 75.2212 58.7194 73.0285 58.7873 70.1112C58.8581 67.0216 56.8941 65.0229 53.7217 64.9519Z" fill="#62BA47"/>
<path d="M222.222 52.8014C222.831 51.8198 223.36 50.8109 224.036 49.9087C225.502 47.9565 227.511 47.1363 229.968 47.6995C232.421 48.2627 233.279 50.111 233.791 52.2846C234.168 53.8704 233.825 54.9695 232.32 55.798C231.403 56.3038 230.616 57.0311 229.707 57.7009C229.362 55.4015 228.89 54.7508 227.594 54.6742C226.249 54.5922 225.222 55.5546 224.69 57.3592C224.297 58.6934 224.305 60.0605 224.299 61.4221C224.285 67.2922 224.26 73.1651 224.319 79.0353C224.331 80.1371 223.982 80.4269 222.896 80.3668C221.345 80.2793 219.78 80.2629 218.235 80.3723C217.046 80.457 216.859 80.0004 216.865 78.9833C216.905 71.0653 216.885 63.1446 216.885 55.2265C216.885 53.8103 216.919 52.3803 215.804 51.2511C215.385 50.8273 215.747 50.6086 216.025 50.3789C216.953 49.6079 217.938 48.8916 218.809 48.0659C219.539 47.3741 220.046 47.6804 220.564 48.2409C221.379 49.124 221.696 50.2122 221.88 51.3495C221.959 51.8253 221.843 52.3502 222.222 52.8014Z" fill="#383F98"/>
<path d="M163.745 64.6429C163.745 59.9538 163.739 55.2648 163.747 50.5758C163.753 48.394 163.558 48.7439 165.737 48.722C167.104 48.7084 168.474 48.7795 169.838 48.7002C170.851 48.64 171.097 48.9927 171.094 49.9305C171.074 56.3503 171.114 62.7672 171.131 69.187C171.139 72.5089 171.111 75.8336 171.176 79.1556C171.196 80.1289 170.876 80.4023 169.9 80.3586C168.253 80.2848 166.597 80.2766 164.953 80.3613C163.914 80.416 163.716 80.036 163.725 79.12C163.767 74.2943 163.745 69.4686 163.745 64.6429Z" fill="#383F98"/>
<path d="M40.9303 22.7424C40.6246 20.1395 40.353 17.955 40.1152 15.7677C39.7587 12.5113 39.3059 9.26317 39.3738 5.97949C39.3823 5.52289 39.1276 4.84483 39.7983 4.68899C40.3926 4.54955 40.6416 5.17839 40.9161 5.57484C42.0396 7.20165 42.8405 8.99796 43.8819 11.1087C44.3177 8.80657 44.6998 6.84348 45.0564 4.87491C45.4695 2.59192 45.4582 2.58371 47.8382 2.04782C48.8881 1.80995 49.9465 1.60763 51.0332 1.3807C51.0898 1.94119 50.6512 2.13258 50.405 2.40873C45.8403 7.52974 43.6244 13.5503 43.0584 20.2079C42.4868 26.9147 43.5423 33.441 45.4441 39.8717C45.5714 40.2982 45.6903 40.7275 45.8261 41.1977C44.8243 41.3317 43.8678 41.2032 42.965 41.534C42.6056 41.6653 42.3452 41.4711 42.1245 41.195C40.2171 38.8272 38.239 36.506 36.841 33.7992C36.6966 33.5176 36.6117 33.2059 36.5099 32.9051C36.4023 32.588 36.3769 32.2708 36.6514 32.0165C36.991 31.6994 37.3815 31.8142 37.69 32.0165C38.7767 32.7192 39.8407 33.4629 40.9727 34.2312C41.2274 33.6516 40.8595 33.2278 40.7124 32.804C39.2096 28.5005 37.6645 24.2106 36.1646 19.9071C36.0005 19.4341 35.4769 18.7478 36.0005 18.4362C36.5834 18.0917 37.0957 18.7943 37.5003 19.1908C38.5729 20.2325 39.586 21.3371 40.9303 22.7424Z" fill="#62BA47"/>
<path d="M31.0087 53.3209C29.8625 52.6674 28.9852 52.1698 28.1136 51.6667C24.5903 49.6298 21.166 47.4589 18.2031 44.681C17.456 43.9811 16.757 43.2347 16.3353 42.3023C16.0551 41.6844 16.0325 41.0501 16.5334 40.5115C17.0484 39.9565 17.6569 40.1834 18.2285 40.4076C20.1501 41.154 21.6556 42.4746 23.1329 43.817C24.2847 44.8642 25.3742 45.9743 26.6109 47.1773C27.0071 45.5122 26.7665 43.9866 27.2165 42.5539C27.5306 41.5559 27.7231 40.3037 29.0928 40.3256C30.4144 40.3502 30.9068 41.4794 31.2266 42.5675C31.7133 44.2354 30.8813 45.6106 29.9984 46.8902C29.421 47.7296 29.5258 48.1479 30.3238 48.7521C33.2557 50.9668 36.1168 53.2716 39.0344 55.5054C39.6825 56.003 39.9117 56.3448 39.4052 57.1349C37.9279 59.4343 37.9732 59.4617 35.7998 57.6982C34.8263 56.908 33.932 55.6367 32.851 55.4671C31.8011 55.3031 31.2039 56.9436 30.2502 57.6435C28.7107 58.7754 27.1005 59.6585 25.0969 59.5492C24.1828 59.5 23.2489 59.3195 22.9263 58.3352C22.6093 57.3756 23.4696 56.9436 24.0752 56.5088C26.0591 55.0844 28.323 54.1958 31.0087 53.3209Z" fill="#62BA47"/>
<path d="M52.0767 96.4407C52.2068 97.4578 53.1209 97.6547 53.8652 97.9718C58.8799 100.11 64.0474 101.824 69.3904 103.038C69.6083 103.087 69.8036 103.219 70.0102 103.312C66.883 106.423 63.2607 108.952 59.7006 111.563C58.9224 112.135 58.4865 111.566 57.9743 111.249C55.8094 109.914 55.8066 109.901 57.1734 107.785C57.6404 107.063 58.1554 106.368 58.7837 105.469C57.6093 105.679 56.6612 105.909 55.699 106.002C55.1811 106.051 54.4255 106.634 54.1341 105.729C53.8426 104.826 52.7813 104.025 53.8341 102.899C54.7085 101.961 55.3962 100.862 56.166 99.831C56.2084 99.7408 56.2509 99.6533 56.2933 99.5631C56.1801 99.574 56.0669 99.5877 55.9537 99.5986C54.7283 99.8912 53.5086 100.206 52.2776 100.468C51.8248 100.564 51.1682 100.952 50.9843 100.208C50.7777 99.3717 49.6203 98.628 50.5768 97.6492C51.0183 97.1981 51.5729 96.8426 52.0767 96.4407Z" fill="#62BA47"/>
<path d="M66.5324 33.9359C66.9909 30.4034 67.3475 27.0651 68.2304 23.8142C68.4342 23.0678 68.5898 22.2968 68.9124 21.5996C69.2096 20.9625 69.252 19.8935 70.3868 20.1067C71.4113 20.3009 71.3462 21.2058 71.3717 21.9823C71.4311 23.9536 71.0434 25.873 70.6529 27.7896C70.0529 30.7315 69.235 33.6242 68.4059 36.5115C68.3351 36.763 68.2983 37.0255 68.2247 37.3809C69.4331 36.8232 70.5085 36.2982 71.6122 35.8279C72.2178 35.5709 72.8744 35.4506 73.5451 35.5245C74.3941 35.6202 74.9233 36.0685 75.0365 36.9052C75.144 37.6926 74.7903 38.2258 74.0205 38.491C72.3621 39.0624 70.6245 39.2456 68.8869 39.3139C67.9078 39.3522 67.3474 39.4862 67.2795 40.6181C67.2031 41.8786 66.9286 43.1417 66.6117 44.3721C66.2098 45.9415 64.8882 44.9709 64.042 45.0173C63.2553 45.0611 63.7449 44.2381 63.8185 43.8635C64.2317 41.7665 64.6788 39.6749 65.2108 37.6051C65.3948 36.8888 65.2222 36.5306 64.5854 36.1916C63.3034 35.5135 62.095 34.7206 61.0678 33.6981C60.6065 33.2387 60.1735 32.7603 59.9273 32.1533C59.6726 31.5244 59.6075 30.8956 60.1565 30.3788C60.7168 29.8511 61.3621 29.9769 61.9903 30.2722C63.1959 30.8382 64.1524 31.7158 65.0976 32.6071C65.525 33.0118 65.9608 33.4082 66.5324 33.9359Z" fill="#62BA47"/>
<path d="M296.093 89.7913C298.564 87.1802 301.558 87.1884 304.059 89.8023C305.409 88.1399 307.189 87.615 309.295 87.9813C311.369 88.3422 312.654 89.6683 312.716 91.7244C312.793 94.3628 312.713 97.004 312.773 99.6424C312.793 100.558 312.289 100.55 311.624 100.534C310.959 100.517 310.319 100.659 310.347 99.6233C310.41 97.2582 310.41 94.8877 310.347 92.5227C310.291 90.33 309.043 89.3019 307.039 89.6656C305.579 89.9308 304.744 90.9014 304.724 92.4845C304.693 94.8057 304.668 97.1297 304.739 99.4483C304.767 100.427 304.328 100.556 303.482 100.547C302.67 100.539 302.183 100.49 302.223 99.4756C302.308 97.3402 302.254 95.1967 302.248 93.0586C302.24 90.6663 301.433 89.6246 299.616 89.6246C297.613 89.6246 296.583 90.7866 296.577 93.0641C296.571 95.2022 296.517 97.3457 296.6 99.4811C296.639 100.512 296.118 100.536 295.32 100.547C294.488 100.558 294.036 100.454 294.058 99.4592C294.129 96.6376 294.084 93.816 294.081 90.9944C294.081 90.5842 294.208 90.0811 294.013 89.7859C293.45 88.9301 293.662 88.3915 294.587 88.1208C295.793 87.7708 295.589 88.8781 295.923 89.425C295.971 89.4988 296 89.5863 296.093 89.7913Z" fill="#3E459C"/>
<path d="M216.846 89.7257C219.28 87.3306 221.802 87.2322 224.346 89.4113C224.767 89.7722 224.912 89.671 225.215 89.3566C226.522 87.995 228.163 87.6778 229.992 87.9786C232.043 88.3176 233.393 89.6683 233.458 91.6943C233.543 94.3764 233.458 97.0641 233.506 99.7463C233.523 100.766 232.824 100.493 232.264 100.525C231.624 100.564 231.056 100.594 231.064 99.6697C231.092 97.168 231.061 94.6663 231.03 92.1645C231.016 91.1502 230.671 90.2725 229.612 89.8515C228.531 89.4195 227.484 89.5534 226.53 90.1878C225.622 90.792 225.41 91.7134 225.41 92.7086C225.407 94.9369 225.353 97.168 225.432 99.3963C225.469 100.443 224.991 100.534 224.097 100.561C223.095 100.594 222.939 100.192 222.956 99.358C223.002 97.0395 223.038 94.7155 222.945 92.3969C222.846 89.9854 220.822 88.8808 218.734 90.01C217.732 90.5514 217.316 91.4126 217.319 92.5036C217.327 94.8248 217.268 97.1461 217.342 99.4646C217.373 100.465 216.9 100.55 216.074 100.55C215.247 100.55 214.789 100.468 214.814 99.4674C214.885 96.6485 214.84 93.8269 214.837 91.0053C214.837 90.5979 214.962 90.0866 214.758 89.7995C214.155 88.9383 214.384 88.4051 215.315 88.1235C216.396 87.7954 216.345 88.725 216.594 89.3019C216.645 89.4167 216.727 89.5234 216.846 89.7257Z" fill="#3E459C"/>
<path d="M291.129 32.0357C291.998 32.1341 293.365 31.5928 294.064 32.2544C294.729 32.8833 294.067 34.1492 293.991 35.1253C293.668 39.2483 293.232 43.3659 292.881 47.4862C292.822 48.1916 292.553 48.3776 291.845 48.3967C289.154 48.4733 289.095 48.5033 288.834 45.8977C288.399 41.5559 288.056 37.2032 287.651 32.8587C287.598 32.2709 287.753 32.0111 288.39 32.0303C289.233 32.0549 290.082 32.0357 291.129 32.0357Z" fill="#383F98"/>
<path d="M246.957 98.628C245.629 100.487 243.96 100.993 241.996 100.834C239.327 100.618 237.768 99.0764 237.72 96.4954C237.677 94.0839 237.753 91.6669 237.677 89.2582C237.649 88.3122 238.087 88.2301 238.854 88.2657C239.573 88.2985 240.227 88.1481 240.179 89.2691C240.083 91.4974 240.133 93.7312 240.156 95.9595C240.179 98.0456 241.263 99.153 243.173 99.112C245.179 99.0682 246.314 97.9199 246.325 95.8912C246.337 93.7066 246.385 91.5193 246.306 89.3347C246.269 88.3313 246.739 88.2493 247.562 88.2548C248.363 88.2602 248.847 88.2903 248.819 89.3129C248.739 92.1345 248.788 94.9588 248.796 97.7804C248.796 98.1878 248.708 98.6964 248.918 98.9807C249.608 99.9103 249.113 100.4 248.278 100.627C247.24 100.911 247.288 99.9787 247.07 99.3963C247.01 99.2377 247.016 99.0491 246.957 98.628Z" fill="#3E459C"/>
<path d="M273.513 96.7032C275.285 97.7066 275.356 98.464 273.845 99.7326C272.144 101.16 268.847 101.168 266.696 99.7545C264.517 98.3218 263.546 95.3471 264.299 92.4243C264.984 89.7722 266.809 88.2247 269.622 87.9048C273.013 87.522 275.469 89.6792 275.494 92.9903C275.5 93.8351 275.056 93.8269 274.442 93.8214C272.229 93.8078 270.016 93.8625 267.808 93.7941C266.764 93.764 266.526 94.1441 266.625 95.0682C266.942 97.9937 268.827 99.5877 271.309 99.0436C272.645 98.7538 273.199 97.8515 273.513 96.7032ZM266.993 92.4161C268.643 92.4161 270.27 92.4161 271.898 92.4161C273.519 92.4134 273.697 92.1345 272.945 90.7565C272.495 89.9363 271.776 89.4851 270.828 89.3757C268.884 89.1488 267.463 90.2452 266.993 92.4161Z" fill="#3E459C"/>
<path d="M287.55 98.8385C285.778 100.988 283.596 101.25 281.225 100.509C279.555 99.9869 278.52 98.8085 278.469 97.0805C278.387 94.3983 278.449 91.7134 278.401 89.0285C278.384 87.9841 279.134 88.334 279.668 88.2848C280.314 88.2247 280.846 88.2137 280.82 89.1461C280.758 91.4646 280.747 93.7886 280.82 96.1072C280.894 98.5351 282.943 99.7736 285.255 98.8358C286.387 98.3765 287.049 97.5617 287.041 96.3067C287.026 93.9855 287.091 91.6642 287.015 89.3457C286.981 88.3504 287.434 88.2411 288.266 88.263C289.038 88.2821 289.573 88.252 289.539 89.3074C289.455 92.1263 289.508 94.9479 289.514 97.7695C289.514 98.1769 289.395 98.6991 289.604 98.9725C290.298 99.883 289.871 100.381 289.007 100.627C287.974 100.922 287.989 100.025 287.776 99.4291C287.728 99.3033 287.68 99.1803 287.55 98.8385Z" fill="#3E459C"/>
<path d="M253.451 96.7114C254.385 99.0545 256.326 99.8802 258.534 98.9397C259.335 98.5979 259.83 98.062 259.818 97.1707C259.807 96.3013 259.272 95.8365 258.491 95.6177C257.455 95.3279 256.394 95.1229 255.356 94.8385C253.225 94.2534 252.129 92.9957 252.251 91.3224C252.376 89.5999 253.731 88.3176 255.803 87.9977C257.959 87.6642 259.957 87.8856 261.389 89.723C261.681 90.0975 262.108 90.576 261.715 91.0681C261.44 91.4099 260.993 91.7599 260.58 91.82C260.127 91.8857 260.22 91.2924 260.07 90.9889C259.284 89.3894 256.425 88.8344 255.033 90.0128C254.13 90.7783 254.311 91.8993 255.438 92.4379C256.38 92.8891 257.436 92.9328 258.432 93.1871C259.49 93.4578 260.515 93.7941 261.27 94.6006C262.555 95.9732 262.357 98.4339 260.885 99.6424C259.043 101.154 255.056 101.204 253.194 99.7381C251.646 98.5214 251.691 97.7668 253.451 96.7114Z" fill="#3E459C"/>
<path d="M170.959 38.1301C170.961 40.4896 169.323 42.5457 167.444 42.5375C165.562 42.5293 163.901 40.4623 163.909 38.1328C163.915 35.7705 165.553 33.7418 167.45 33.7473C169.377 33.75 170.956 35.7213 170.959 38.1301Z" fill="#383F98"/>
<path d="M158.799 16.3555C158.799 18.3843 158.805 20.4102 158.797 22.439C158.794 22.8655 158.952 23.4123 158.168 23.3713C157.481 23.333 157.653 22.8381 157.651 22.4663C157.639 19.9208 157.631 17.3781 157.659 14.8326C157.662 14.4471 157.362 13.8538 158.095 13.7362C158.681 13.6433 159.165 13.7362 159.504 14.3405C160.512 16.1368 161.576 17.9003 162.62 19.6748C162.773 19.9318 162.943 20.1778 163.364 20.3774C163.364 18.5456 163.344 16.7137 163.378 14.8818C163.387 14.4608 163.053 13.7609 163.922 13.739C164.89 13.7144 164.556 14.4799 164.561 14.9393C164.592 17.3918 164.587 19.847 164.567 22.2995C164.564 22.7014 164.802 23.2647 164.06 23.3686C163.466 23.4506 163.11 23.2045 162.821 22.7042C161.584 20.5661 160.314 18.4444 159.057 16.3173C158.969 16.3282 158.884 16.3419 158.799 16.3555Z" fill="#3E459C"/>
<path d="M135.895 18.5865C135.895 17.2714 135.929 15.9536 135.881 14.6385C135.855 13.9249 136.113 13.635 136.851 13.7089C137.222 13.7471 137.601 13.7143 137.978 13.7143C141.911 13.7143 143.53 15.3876 143.27 19.1881C143.083 21.9085 141.586 23.3029 138.764 23.3767C135.895 23.4533 135.895 23.4533 135.898 20.6289C135.895 19.9509 135.895 19.2673 135.895 18.5865ZM141.829 18.6111C141.829 18.3842 141.841 18.1573 141.826 17.9331C141.688 15.5927 140.502 14.5865 138.113 14.7123C137.553 14.7424 137.262 14.8271 137.27 15.4587C137.301 17.5421 137.293 19.6255 137.273 21.7089C137.267 22.2229 137.443 22.3842 137.989 22.4307C140.533 22.6522 141.826 21.3945 141.829 18.6111Z" fill="#3E459C"/>
<path d="M111.492 23.4397C107.87 23.9619 105.946 22.2011 105.9 18.0644C105.897 17.8374 105.946 17.6132 105.73 17.4465C106.166 17.2769 106.113 16.8696 106.223 16.5333C106.879 14.5291 108.21 13.5749 110.278 13.605C112.31 13.6324 113.615 14.6686 114.192 16.7055C115.018 19.6283 114.014 22.1355 111.492 23.4397ZM110.629 22.4253C111.557 22.4144 112.112 21.8812 112.437 21.1293C113.176 19.415 113.173 17.6761 112.435 15.9591C112.03 15.0186 111.226 14.5674 110.207 14.5565C109.177 14.5456 108.391 15.0322 107.955 15.9345C107.465 16.9516 107.389 18.0343 107.57 19.1362C107.615 21.5394 108.484 22.4718 110.629 22.4253Z" fill="#3E459C"/>
<path d="M121.817 21.8238C122.694 19.2838 123.486 17.0117 124.253 14.7314C124.451 14.1463 124.627 13.4628 125.43 13.7554C126.186 14.0315 125.578 14.5947 125.447 14.983C124.607 17.482 123.715 19.9646 122.866 22.4608C122.674 23.0268 122.473 23.4068 121.729 23.3986C121.024 23.3932 120.767 23.1061 120.557 22.5046C119.669 19.9263 118.706 17.3699 117.826 14.7889C117.727 14.4963 117.082 13.9304 117.959 13.739C118.534 13.6132 119.009 13.698 119.238 14.428C119.906 16.5524 120.665 18.6467 121.392 20.7547C121.485 21.0063 121.59 21.2496 121.817 21.8238Z" fill="#3E459C"/>
<path d="M179.995 18.4526C179.995 17.1812 180.029 15.9071 179.98 14.6357C179.955 13.9249 180.201 13.6761 180.945 13.7034C182.213 13.7526 183.487 13.7034 184.755 13.728C185.072 13.7335 185.601 13.5257 185.581 14.1409C185.564 14.6795 185.159 14.7615 184.687 14.7506C183.934 14.7314 183.178 14.7861 182.428 14.7342C181.673 14.6822 181.361 14.8709 181.356 15.6911C181.342 17.7198 181.294 17.7198 183.422 17.7335C183.705 17.7362 183.988 17.7308 184.268 17.7444C184.514 17.7581 184.729 17.8319 184.74 18.1245C184.755 18.4362 184.63 18.6576 184.279 18.6795C183.903 18.7014 183.521 18.7451 183.153 18.6959C181.811 18.5073 181.228 18.8709 181.339 20.3446C181.492 22.387 181.376 22.3952 183.541 22.3952C183.824 22.3952 184.109 22.3651 184.387 22.4034C184.842 22.4663 185.598 22.13 185.601 22.9092C185.604 23.7076 184.828 23.3713 184.415 23.3631C182.972 23.3275 181.045 23.981 180.224 23.0951C179.511 22.3241 180.02 20.4977 179.992 19.1388C179.992 18.9064 179.995 18.6795 179.995 18.4526Z" fill="#3E459C"/>
<path d="M147.723 18.5428C147.723 17.2222 147.732 15.9044 147.72 14.5838C147.715 14.0807 147.752 13.6925 148.451 13.7089C149.863 13.739 151.275 13.7143 152.69 13.7198C152.959 13.7198 153.324 13.6843 153.315 14.0725C153.304 14.458 153.128 14.7643 152.622 14.7451C152.011 14.7232 151.388 14.8135 150.788 14.7287C149.458 14.5401 148.994 14.9529 149.059 16.3172C149.113 17.4136 149.336 17.9222 150.542 17.7417C150.955 17.6788 151.388 17.7335 151.813 17.7362C152.169 17.7362 152.486 17.7882 152.444 18.2475C152.41 18.5893 152.18 18.6959 151.863 18.6987C151.535 18.7014 151.196 18.7479 150.876 18.6959C149.495 18.4827 148.971 18.9201 149.076 20.361C149.22 22.387 149.11 22.3952 151.164 22.3925C151.589 22.3925 152.013 22.3897 152.435 22.3925C152.86 22.3952 153.369 22.3432 153.361 22.9393C153.349 23.6228 152.749 23.3549 152.398 23.3631C151.176 23.3986 149.948 23.333 148.725 23.3931C147.887 23.4342 147.681 23.1061 147.712 22.3624C147.76 21.091 147.723 19.8169 147.723 18.5428Z" fill="#3E459C"/>
<path d="M168.964 18.8135C168.953 15.1334 170.88 13.2249 173.942 13.6569C174.782 13.7745 175.445 14.1381 175.892 14.8545C176.132 15.24 176.059 15.5161 175.679 15.7759C175.263 16.0602 175.167 15.7677 174.944 15.5079C173.71 14.0862 171.76 14.2885 170.953 15.97C170.144 17.6597 170.147 19.4314 170.951 21.1238C171.743 22.7916 173.809 22.9967 174.941 21.5777C175.136 21.3316 175.184 20.957 175.637 21.2797C175.982 21.5257 176.172 21.7691 175.928 22.1874C175.476 22.9666 174.751 23.3439 173.877 23.4724C171.369 23.8361 169.422 22.3651 169.032 19.8114C168.964 19.4095 168.972 18.9967 168.964 18.8135Z" fill="#3E459C"/>
<path d="M34.0831 63.6285C33.418 63.4426 32.5407 63.3906 32.569 62.3052C32.5917 61.4084 34.284 59.0488 34.867 59.1172C35.4612 59.1855 37.0772 60.9955 37.029 61.5369C36.9357 62.6333 35.4839 63.6968 34.0831 63.6285Z" fill="#62BA47"/>
<path d="M129.632 18.5292C129.632 17.2168 129.635 15.9044 129.629 14.5893C129.626 14.1163 129.603 13.6816 130.328 13.7062C130.908 13.7253 131.021 14.0124 131.021 14.4881C131.013 17.2031 131.01 19.9208 131.024 22.6358C131.027 23.1498 130.843 23.3686 130.297 23.3795C129.688 23.3904 129.623 23.0651 129.626 22.6003C129.64 21.2469 129.629 19.888 129.632 18.5292Z" fill="#3E459C"/>
<path d="M54.7194 115.2C54.5327 114.439 54.6374 113.701 54.8411 112.963C55.376 110.997 55.3449 111.038 57.0683 112.156C57.9003 112.698 57.923 113.042 57.1023 113.581C56.3722 114.059 55.7156 114.645 55.0166 115.175C54.9572 115.216 54.8468 115.191 54.7194 115.2Z" fill="#62BA47"/>
<path d="M46.542 101.925C47.2806 101.034 47.8155 100.37 48.3758 99.7271C48.5399 99.5385 48.7182 99.1365 48.9843 99.3088C49.4653 99.6232 49.4512 100.252 49.6804 100.733C49.8587 101.108 49.5446 101.223 49.2871 101.288C48.4833 101.499 47.674 101.668 46.542 101.925Z" fill="#62BA47"/>
<path d="M50.7393 106.953C51.3619 106.125 51.8486 105.474 52.3523 104.802C53.6202 106.53 53.5834 106.584 50.7393 106.953Z" fill="#62BA47"/>
<path d="M40.2417 68.6111C39.9926 68.6056 39.786 68.5315 39.6729 68.2929C39.8625 68.3999 40.0521 68.5069 40.2417 68.6111Z" fill="#62BA47"/>
<path d="M39.2192 31.5791C39.3466 31.6724 39.4089 31.7766 39.2617 31.9055C39.2051 31.8424 39.1485 31.7793 39.0947 31.7163C39.1372 31.6724 39.1768 31.6257 39.2192 31.5791Z" fill="#62BA47"/>
<path d="M102.431 23.2865C101.381 23.6009 100.722 23.5025 100.472 22.3897C100.305 21.6433 99.9857 20.9188 99.6461 20.2216C99.3348 19.5818 98.8311 19.1553 98.0047 19.1224C97.1925 19.0896 96.7595 19.2592 96.8388 20.1614C96.9095 20.9734 96.8473 21.7991 96.8558 22.6167C96.8614 23.0733 96.7822 23.4506 96.1822 23.4205C95.7408 23.4013 95.4719 23.1908 95.4691 22.7452C95.4663 19.9235 95.4634 17.1019 95.4691 14.2803C95.4691 13.7936 95.8172 13.6925 96.236 13.6979C97.2237 13.7116 98.2255 13.6351 99.199 13.7581C100.552 13.9276 101.644 14.5592 101.856 15.9973C102.052 17.3316 101.443 18.2667 100.008 18.6987C101.477 19.9509 101.599 21.7472 102.431 23.2865ZM96.8416 16.4758C97.0935 17.0418 96.2615 18.201 97.7727 18.2393C99.3914 18.2831 100.458 17.5503 100.433 16.4348C100.407 15.2646 99.6376 14.808 98.05 14.7041C96.485 14.6029 96.9067 15.6146 96.8416 16.4758Z" fill="#3E459C"/>
<path d="M85.2646 18.5346C85.2646 17.4874 85.2646 16.4403 85.2646 15.3931C85.2646 13.6788 85.3664 13.5011 87.1125 13.5284C88.0775 13.5448 89.068 13.769 89.9878 14.0725C91.3575 14.5264 91.9857 15.877 91.5754 17.1594C91.1509 18.4772 89.6991 19.4177 88.4143 19.199C86.8437 18.9338 86.6597 19.0896 86.6541 20.6754C86.6512 21.2223 86.6767 21.7691 86.6456 22.3132C86.6201 22.7643 86.8663 23.4096 86.0116 23.4123C85.256 23.4123 85.2617 22.8819 85.2617 22.3569C85.2674 21.0828 85.2646 19.8087 85.2646 18.5346ZM86.6541 16.5387C86.9484 17.0637 85.9749 18.3049 87.6559 18.2858C89.2633 18.2667 90.2424 17.5886 90.2198 16.3883C90.2 15.2947 89.4359 14.8381 87.9474 14.7014C86.3371 14.5537 86.6739 15.5736 86.6541 16.5387Z" fill="#383F98"/>
<path d="M54.9434 46.7427C54.9804 46.7592 55.0231 46.773 55.0544 46.7977C55.0686 46.8087 55.0572 46.85 55.0544 46.8747C55.0259 46.8225 54.9974 46.773 54.969 46.7207L54.9434 46.7427Z" fill="#FDFDFD"/>
<path d="M204.05 65.0831C203.97 66.5978 204.262 68.7851 203.815 70.9532C203.39 73.0065 202.27 74.2041 200.549 74.3982C198.531 74.6251 197.181 73.8405 196.29 71.7735C195.101 69.0229 195.045 66.1029 195.152 63.1856C195.232 61.0038 195.438 58.8247 196.434 56.8069C196.98 55.6996 197.753 54.7973 199.021 54.4473C200.676 53.9935 202.383 54.7262 203.209 56.219C203.823 57.3264 204.016 58.543 204.044 59.7761C204.078 61.3264 204.05 62.8739 204.05 65.0831Z" fill="#FDFDFD"/>
<path d="M58.3066 94.3764C63.5647 95.4263 68.6643 95.7681 73.8205 95.7107C77.4344 95.6697 80.5558 94.5268 83.3547 92.4434C86.5752 90.0483 89.4193 87.2677 92.0313 84.2766C92.5068 84.4516 92.4983 84.8699 92.702 85.1488C93.002 85.5589 93.0812 86.3627 93.8623 86.0073C94.6009 85.671 94.7736 84.9847 94.4198 84.2602C93.9812 83.3552 93.5029 82.4693 93.0303 81.578C90.7352 77.2444 88.4429 72.9081 86.1337 68.58C85.8111 67.9758 85.4856 67.4508 86.3488 66.9915C87.3138 66.4775 87.4836 67.2622 87.7694 67.7789C90.6503 72.9464 93.5001 78.1276 96.4008 83.2841C96.9102 84.1918 96.8932 84.9711 96.4008 85.8514C95.3056 87.8146 94.2585 89.8023 93.1888 91.7763C91.0692 95.6916 87.8543 98.5597 83.9433 100.755C83.0349 101.266 82.0529 101.543 81.0143 101.687C75.6034 102.437 70.3113 101.865 65.0929 100.411C63.3751 99.9322 61.6658 99.4182 59.9395 98.9643C59.0877 98.7401 58.6887 98.2698 58.6377 97.4195C58.5868 96.4708 58.4396 95.5302 58.3066 94.3764Z" fill="#A9DEF6"/>
<path d="M89.3927 78.7619C90.1653 79.7762 90.4879 80.93 91.0454 81.969C91.2633 82.3764 91.1671 82.7728 90.8813 83.1173C87.3495 87.388 83.4809 91.265 77.9964 93.2008C74.2297 94.5296 70.3131 94.453 66.4105 94.1632C64.0277 93.9855 61.6647 93.5398 59.296 93.209C58.1867 93.0531 57.1424 90.6908 57.8414 89.8542C58.1754 89.4523 58.7329 89.6437 59.1857 89.6601C64.2626 89.8597 69.2349 89.2882 74.0741 87.7817C79.6774 86.0374 84.5874 83.1529 88.8437 79.2267C88.9993 79.079 89.1776 78.9423 89.3927 78.7619Z" fill="#A9DEF6"/>
<path d="M57.4036 83.5083C57.3216 83.5001 57.1687 83.5274 57.0584 83.47C56.4754 83.1693 56.3848 80.0578 56.9933 79.7489C61.0515 77.6901 64.5323 74.7837 68.4348 72.5035C72.1336 70.3408 76.2965 69.5752 80.4763 68.8835C80.7084 68.8452 80.9433 68.8261 81.1753 68.796C82.1404 68.6784 83.3516 67.9183 83.9911 68.4925C84.8656 69.2772 85.2363 70.5868 85.8193 71.6723C86.1334 72.2574 85.5929 72.364 85.2618 72.5554C78.8831 76.2793 72.1336 79.2157 65.0332 81.3948C62.9758 82.0264 60.8902 82.5732 58.8186 83.1529C58.3687 83.2814 57.9102 83.3825 57.4036 83.5083Z" fill="#A9DEF6"/>
<path d="M61.0689 88.2848C60.4095 88.2848 59.7388 88.2083 59.0936 88.3012C57.8088 88.4871 57.4069 87.9048 57.2343 86.7701C57.0362 85.455 57.3475 84.9137 58.8361 84.6266C68.5174 82.7728 77.6129 79.4345 85.9103 74.2068C86.6914 73.7147 86.9772 73.8678 87.3706 74.6087C88.7771 77.269 88.7969 77.2472 86.5131 79.2485C80.5192 84.5008 73.4641 87.3716 65.4242 88.047C64.6771 88.1098 63.9328 88.2247 63.1829 88.263C62.4782 88.3012 61.7707 88.2712 61.0632 88.2712C61.0689 88.2766 61.0689 88.2821 61.0689 88.2848Z" fill="#A9DEF6"/>
<path d="M62.9609 74.0455C61.2347 71.2895 61.7129 69.4987 64.6334 67.8637C65.6918 67.2704 66.8012 66.7317 67.9926 66.4857C68.9435 66.2888 68.9208 66.0045 68.5869 65.2252C67.0332 61.5834 68.7991 58.3763 72.73 57.567C76.0863 56.878 79.0946 59.2649 79.0125 62.5567C78.8965 62.3599 78.7946 62.1548 78.6587 61.9744C77.9484 61.042 76.8589 60.7768 75.9759 61.3865C75.059 62.0181 74.7902 62.8766 75.342 63.8718C75.8599 64.8014 76.924 65.0557 78.0022 64.5554C78.2427 64.4433 78.3956 64.1507 78.7267 64.2218C78.6474 66.1029 77.207 66.8138 75.7156 67.4645C75.2939 67.6477 74.6006 67.5246 74.793 68.3175C74.2412 68.5253 73.6752 68.6593 73.0781 68.6155C72.6819 67.8418 71.9263 67.7707 71.1763 67.7379C68.785 67.6285 66.688 68.457 64.7749 69.742C63.3317 70.7126 63.2666 71.6285 64.407 73.012C64.0618 73.5342 63.6316 73.9471 62.9609 74.0455Z" fill="#FDFDFD"/>
<path d="M35.3601 66.6798C37.0892 68.2054 38.8325 69.7147 40.5446 71.2567C43.7 74.1002 46.8385 76.9601 49.9741 79.82C50.3052 80.1207 50.741 80.3832 50.7014 80.9218C47.7893 79.3661 44.6311 78.6361 41.3512 78.3135C41.0286 77.9526 40.5927 77.671 40.4937 77.1569C40.6324 77.1378 40.7739 77.1187 40.9125 77.1023C41.487 77.0448 42.2851 77.455 42.2879 76.334C42.2907 75.2813 41.4757 75.634 40.9833 75.5821C39.3985 75.4126 37.7826 75.5028 36.2176 75.131C35.8667 75.0462 35.4479 74.986 35.4054 74.5103C35.3601 73.9717 35.7478 73.7885 36.1893 73.7311C37.4911 73.5561 38.7957 73.4139 40.1003 73.2554C40.372 73.2225 40.7229 73.2389 40.689 72.848C40.6635 72.5472 40.689 72.1262 40.3635 72.0086C40.0918 71.9102 39.7324 72.0359 39.4126 72.0715C36.461 72.4078 33.5037 72.7605 30.7416 71.2485C29.3832 70.5048 29.3097 69.7338 30.5379 68.8999C32.0179 67.8965 33.7046 67.3168 35.3601 66.6798Z" fill="#62BA47"/>
<path d="M35.3613 66.6798C33.703 67.3168 32.0163 67.8992 30.5448 68.8999C29.3165 69.7338 29.3901 70.5021 30.7485 71.2485C33.5106 72.7632 36.465 72.4105 39.4195 72.0715C39.7393 72.0359 40.0987 71.9102 40.3704 72.0086C40.693 72.1262 40.6675 72.5445 40.6958 72.848C40.7298 73.2389 40.3789 73.2225 40.1072 73.2553C38.8026 73.4139 37.498 73.5588 36.1962 73.7311C35.7547 73.7912 35.367 73.9717 35.4123 74.5103C35.4519 74.986 35.8736 75.0462 36.2245 75.1309C37.7895 75.5055 39.4025 75.4153 40.9902 75.5821C41.4826 75.634 42.3004 75.2813 42.2948 76.334C42.2891 77.455 41.4911 77.0448 40.9194 77.1022C40.7807 77.1159 40.6392 77.1378 40.5006 77.1569C40.0449 77.0476 39.578 76.9327 39.2582 77.4057C38.9328 77.8842 39.2922 78.2396 39.5186 78.6197C39.7704 79.038 40.0195 79.4591 40.2685 79.8801C38.2451 79.8418 36.2217 79.8036 34.2011 79.7653C33.5785 79.7544 32.871 80.0086 32.8568 78.9341C32.8427 77.7803 33.6803 78.1932 34.2265 78.1412C34.9736 78.0701 35.7321 78.1029 36.4848 78.1057C37.1386 78.1084 37.8432 78.2369 37.9168 77.28C37.9904 76.3312 37.181 76.6785 36.7339 76.5226C35.9415 76.2492 35.1151 76.0605 34.3284 75.7707C33.7737 75.5657 33.3011 75.1446 33.4228 74.5322C33.5813 73.7365 33.2304 73.5506 32.5172 73.4167C31.4503 73.2143 30.4853 72.7167 29.5628 72.1617C27.6384 71.0052 27.5818 69.2827 29.4835 68.0441C31.1334 66.9696 32.9898 66.3052 34.8774 65.7338C35.0331 66.0482 35.1972 66.3626 35.3613 66.6798Z" fill="#FDFDFD"/>
<path d="M41.3516 78.3108C44.6315 78.6334 47.7897 79.3634 50.7018 80.9191L50.6904 80.9027C50.8008 81.1433 50.9734 81.2773 51.2621 81.2144L51.2451 81.1788C51.1885 81.403 51.3555 81.4851 51.514 81.5753C51.5253 82.3381 51.5366 83.1037 51.5451 83.8665C50.1301 83.9677 48.7151 84.0715 47.0002 84.1946C48.7802 84.9219 50.2659 85.5288 51.7488 86.1385C51.763 86.669 51.7771 87.1994 51.7913 87.7298C51.0951 87.7161 50.5971 87.0162 49.8415 87.2048C49.8216 87.1775 49.8018 87.1502 49.7792 87.1201C49.8075 87.142 49.833 87.1638 49.8613 87.1884C49.9801 88.334 50.4923 88.9766 51.7998 88.5965C51.8054 89.116 51.8083 89.6355 51.8139 90.155C51.163 90.278 50.5122 90.401 49.8613 90.5241C49.3377 90.0593 48.9868 89.4851 48.7264 88.8535C48.7321 88.6129 48.7349 88.3751 48.4491 88.263L48.4633 88.2821C48.135 87.3552 48.2453 86.1057 46.7115 86.0675C45.888 85.0285 45.0815 83.9786 44.4645 82.8111C45.1296 82.6307 46.0663 83.0517 46.1682 81.7749C46.2729 80.4816 45.3418 80.5937 44.6004 80.427C43.9268 80.2766 43.2278 80.2301 42.5401 80.1399C42.0845 79.5657 41.5808 79.0216 41.3516 78.3108ZM49.3094 82.2315C48.6415 81.8432 48.1095 81.1624 47.2747 81.4413C47.1643 81.4769 47.102 82.1987 47.2435 82.2971C47.8973 82.7455 48.6076 82.4256 49.3094 82.2315Z" fill="#FDFDFD"/>
<path d="M53.2468 83.1529C53.4873 82.4393 52.6723 81.4358 53.8467 80.8972C54.475 80.6101 54.8599 80.5855 54.9391 81.4605C55.2787 85.116 55.6862 88.7688 56.0569 92.4215C56.2069 93.9116 56.3003 95.4099 56.4758 96.8973C56.5437 97.4769 56.3965 97.6902 55.8107 97.5015C54.8457 97.1871 54.1382 96.8262 54.0845 95.5603C53.9062 91.4345 53.5439 87.3197 53.2468 83.1529Z" fill="#A9DEF6"/>
<path d="M64.4041 73.0093C63.2636 71.6231 63.3287 70.7072 64.772 69.7393C66.685 68.4542 68.782 67.6258 71.1734 67.7352C71.9233 67.768 72.6789 67.8391 73.0751 68.6128C69.8603 69.4795 67.0841 71.1528 64.4041 73.0093Z" fill="#62BA47"/>
<path d="M42.543 80.1344C43.2307 80.2273 43.9297 80.2711 44.6032 80.4215C45.3446 80.5882 46.2757 80.4761 46.171 81.7694C46.0691 83.0462 45.1324 82.6252 44.4673 82.8056C43.8278 81.917 43.1854 81.0257 42.543 80.1344Z" fill="#62BA47"/>
<path d="M49.0057 92.4215C48.0407 92.0934 47.0615 91.7927 46.1163 91.4208C45.7343 91.2705 45.0947 91.3279 45.1117 90.6799C45.1286 90.062 45.638 89.8952 46.1389 89.7448C46.3625 89.6792 46.5804 89.6026 46.804 89.5316C47.9529 90.1987 48.451 91.3306 49.0057 92.4215Z" fill="#FDFDFD"/>
<path d="M51.7516 86.1358C50.2659 85.5288 48.783 84.9219 47.0029 84.1918C48.7179 84.0688 50.1329 83.9676 51.5479 83.8637C51.4658 84.6375 51.9639 85.3566 51.7516 86.1358Z" fill="#62BA47"/>
<path d="M49.8643 90.5213C50.5152 90.3983 51.166 90.2753 51.8169 90.1522C51.8141 90.7647 51.8141 91.3798 51.8113 91.9923C51.5339 91.9349 51.2594 91.8775 50.9821 91.82L51.0019 91.8364C50.9453 91.5357 50.6963 91.6314 50.5038 91.6123C50.2916 91.2486 50.0793 90.885 49.8643 90.5213Z" fill="#62BA47"/>
<path d="M43.6634 84.7742C43.1851 84.5992 42.6786 84.4735 42.2314 84.2411C41.3315 83.7735 41.2749 83.2814 42.2852 82.8549C42.9389 83.3662 43.4087 83.9977 43.6634 84.7742Z" fill="#FDFDFD"/>
<path d="M51.8021 88.5938C50.4946 88.9765 49.9824 88.3313 49.8636 87.1857L49.8438 87.2021C50.5994 87.0135 51.0974 87.7161 51.7936 87.7271C51.7964 88.0169 51.7993 88.304 51.8021 88.5938Z" fill="#62BA47"/>
<path d="M46.7168 86.0647C48.2506 86.1003 48.1403 87.3498 48.4686 88.2794C47.5573 87.7818 47.2375 86.8467 46.7168 86.0647Z" fill="#62BA47"/>
<path d="M50.9843 91.82C51.2588 91.8774 51.5361 91.9349 51.8135 91.9923C52.0597 92.3942 52.0201 92.8262 51.9946 93.4113C51.4003 92.9246 50.9333 92.5364 50.9843 91.82Z" fill="#FDFDFD"/>
<path d="M51.2621 81.2182C50.9734 81.2812 50.8008 81.1468 50.6904 80.9055C50.9508 80.889 51.1772 80.9329 51.2621 81.2182Z" fill="#62BA47"/>
<path d="M48.4513 88.2602C48.7343 88.3724 48.7315 88.6133 48.7286 88.8515C48.4909 88.7173 48.4372 88.5038 48.4513 88.2602Z" fill="#62BA47"/>
<path d="M50.5059 91.6096C50.6983 91.6288 50.9473 91.53 51.0039 91.8345C50.6983 92.0512 50.6728 91.6836 50.5059 91.6096Z" fill="#FDFDFD"/>
<path d="M51.5135 81.5762C51.355 81.4885 51.1881 81.4063 51.2447 81.1788C51.3352 81.3131 51.4258 81.4446 51.5135 81.5762Z" fill="#62BA47"/>
<path d="M247.084 58.7946C246.003 58.7946 244.922 58.7591 243.843 58.8055C243.085 58.8384 242.963 58.5103 243.116 57.9088C243.377 56.8944 243.699 55.9019 244.299 55.016C245.055 53.9087 246.096 53.3018 247.497 53.4056C249.008 53.5177 250.202 54.1193 250.811 55.5465C250.952 55.88 251.083 56.2218 251.182 56.569C251.765 58.6688 251.668 58.7919 249.481 58.7946C248.68 58.7946 247.882 58.7946 247.084 58.7946Z" fill="#FDFDFD"/>
<path d="M53.721 64.9518C56.8934 65.0229 58.8574 67.0243 58.7867 70.1111C58.7187 73.0284 56.268 75.2212 53.1154 75.1802C50.4326 75.1474 48.0922 72.5308 48.2082 69.6983C48.3186 67.0079 50.7863 64.8835 53.721 64.9518ZM58.4357 69.8377C58.464 68.7878 57.5641 67.8637 56.5199 67.8664C55.5379 67.8691 54.6634 68.7276 54.6323 69.7174C54.5955 70.822 55.4049 71.634 56.5368 71.6313C57.6037 71.6286 58.4103 70.8685 58.4357 69.8377Z" fill="#FDFDFD"/>
<path d="M78.7258 64.2191C78.3947 64.1507 78.2419 64.4433 78.0013 64.5526C76.9259 65.0502 75.8591 64.7987 75.3412 63.8691C74.7865 62.8739 75.0582 62.0181 75.9751 61.3838C76.858 60.7741 77.9504 61.0393 78.6579 61.9716C78.7937 62.1521 78.8956 62.3571 79.0116 62.554C79.0088 62.8794 79.006 63.202 79.0031 63.5246C78.7343 63.6941 78.6154 63.9265 78.7003 64.2355L78.7258 64.2191Z" fill="#3E459C"/>
<path d="M78.7051 64.2382C78.6202 63.9265 78.7362 63.6969 79.0079 63.5273C78.94 63.7761 79.1437 64.1343 78.7051 64.2382Z" fill="#FDFDFD"/>
<path d="M55.9492 99.5987C56.0624 99.5878 56.1756 99.574 56.2888 99.5631C56.2464 99.6536 56.2039 99.7414 56.1615 99.8319C56.0907 99.7551 56.02 99.6783 55.9492 99.5987Z" fill="#FDFDFD"/>
<path d="M266.993 92.4161C267.46 90.2452 268.884 89.1488 270.828 89.373C271.776 89.4824 272.495 89.9335 272.945 90.7537C273.697 92.1345 273.522 92.4134 271.897 92.4134C270.273 92.4161 268.643 92.4161 266.993 92.4161Z" fill="#FDFDFD"/>
<path d="M141.829 18.6112C141.829 21.3945 140.533 22.6522 137.991 22.4307C137.445 22.3815 137.27 22.2202 137.275 21.7089C137.295 19.6255 137.304 17.5421 137.273 15.4587C137.264 14.8299 137.556 14.7424 138.116 14.7123C140.504 14.5865 141.69 15.5927 141.829 17.9331C141.84 18.1573 141.829 18.3842 141.829 18.6112Z" fill="#FDFDFD"/>
<path d="M107.567 19.1389C107.386 18.037 107.462 16.9516 107.952 15.9372C108.388 15.0349 109.175 14.5455 110.205 14.5592C111.224 14.5701 112.03 15.0213 112.432 15.9618C113.171 17.6788 113.173 19.4177 112.435 21.132C112.109 21.8839 111.555 22.4198 110.626 22.428C109.673 21.2742 108.719 20.1177 107.567 19.1389Z" fill="#FDFDFD"/>
<path d="M107.566 19.1389C108.718 20.1204 109.672 21.2742 110.628 22.4253C108.483 22.4718 107.615 21.5394 107.566 19.1389Z" fill="#62BA47"/>
<path d="M96.8424 16.4758C96.9075 15.6146 96.4859 14.603 98.0508 14.7041C99.6385 14.808 100.411 15.2646 100.434 16.4348C100.456 17.5503 99.3922 18.2831 97.7735 18.2393C96.2623 18.2011 97.0943 17.0445 96.8424 16.4758Z" fill="#62BA47"/>
<path d="M86.6537 16.5387C86.6763 15.5708 86.3367 14.5537 87.9498 14.7014C89.4355 14.8381 90.1996 15.2947 90.2223 16.3883C90.2449 17.5886 89.2657 18.2667 87.6583 18.2858C85.9745 18.3049 86.9452 17.0664 86.6537 16.5387Z" fill="#62BA47"/>
<path d="M49.3101 82.2315C48.6083 82.4284 47.8951 82.7455 47.2471 82.2971C47.1056 82.1987 47.1678 81.4796 47.2782 81.4413C48.113 81.1624 48.6422 81.8432 49.3101 82.2315Z" fill="#62BA47"/>
<path d="M49.8655 87.1862C49.8368 87.1642 49.8109 87.1421 49.7822 87.1174C49.8023 87.1449 49.8224 87.1724 49.8454 87.2027L49.8655 87.1862Z" fill="#62BA47"/>
<path d="M58.4355 69.8377C58.4072 70.8684 57.6035 71.6312 56.5366 71.6312C55.4047 71.634 54.5953 70.8219 54.6321 69.7174C54.6632 68.7276 55.5377 67.8691 56.5197 67.8664C57.5639 67.8609 58.4638 68.7878 58.4355 69.8377Z" fill="#3E459C"/>
</svg>
