<svg width="52" height="52" viewBox="0 0 52 52" fill="none" xmlns="http://www.w3.org/2000/svg">
<path d="M25.3786 9.36011C18.5129 9.36011 12.0657 9.88011 8.63293 10.6073C6.34574 11.1273 4.36731 12.6873 3.95293 15.0801C3.53855 17.5745 3.12012 21.3201 3.12012 26.0001C3.12012 30.6801 3.53449 34.3201 4.05449 36.9201C4.47293 39.2073 6.44731 40.8729 8.73449 41.3929C12.3786 42.1201 18.6145 42.6401 25.4801 42.6401C32.3457 42.6401 38.5817 42.1201 42.2217 41.3929C44.5129 40.8729 46.4873 39.3129 46.9017 36.9201C47.3201 34.3201 47.8401 30.5785 47.9417 25.8985C47.9417 21.2185 47.4217 17.4729 46.9017 14.8729C46.4873 12.5857 44.5129 10.9201 42.2217 10.4001C38.5817 9.88011 32.2401 9.36011 25.3786 9.36011ZM25.3786 11.4401C32.8657 11.4401 38.8945 12.0617 41.8073 12.5817C43.3673 13.0001 44.6145 14.0401 44.8217 15.3929C45.4473 18.7201 45.8617 22.2585 45.8617 25.8985C45.7601 30.3673 45.2401 34.0073 44.8217 36.6073C44.5129 38.5817 42.4329 39.2073 41.8073 39.4185C38.0617 40.1457 31.8217 40.6617 25.5817 40.6617C19.3417 40.6617 13.0001 40.2473 9.36012 39.4185C7.80012 39.0001 6.55293 37.9601 6.34574 36.6073C5.51293 33.6945 5.20012 29.8473 5.20012 26.0001C5.20012 21.2145 5.61856 17.6801 6.03293 15.4985C6.34574 13.5201 8.52731 12.8945 9.04731 12.6873C12.4801 11.9601 18.8257 11.4401 25.3786 11.4401ZM19.7601 17.6801V34.3201L34.3201 26.0001L19.7601 17.6801ZM21.8401 21.2185L30.1601 26.0001L21.8401 30.7817V21.2185Z" fill="white"/>
</svg>
