<svg width="250" height="63" viewBox="0 0 250 63" fill="none" xmlns="http://www.w3.org/2000/svg">
<path d="M248.119 61.4953C248.945 61.4298 249.561 60.7072 249.495 59.8813L248.427 46.4236C248.362 45.5978 247.639 44.9815 246.813 45.047C245.987 45.1126 245.371 45.8352 245.437 46.661L246.386 58.6234L234.424 59.5728C233.598 59.6383 232.981 60.3609 233.047 61.1867C233.113 62.0126 233.835 62.6289 234.661 62.5634L248.119 61.4953ZM179.027 3.14125L247.027 61.1413L248.973 58.8587L180.973 0.858749L179.027 3.14125Z" fill="#3E459C"/>
<path d="M1.89228 61.4961C1.06599 61.4366 0.44438 60.7186 0.503873 59.8923L1.47336 46.4271C1.53286 45.6008 2.25092 44.9792 3.07721 45.0387C3.9035 45.0982 4.52511 45.8163 4.46562 46.6426L3.60385 58.6116L15.5729 59.4734C16.3992 59.5329 17.0208 60.2509 16.9613 61.0772C16.9018 61.9035 16.1837 62.5251 15.3574 62.4656L1.89228 61.4961ZM69.9818 3.13409L2.98175 61.1341L1.01825 58.8659L68.0182 0.865908L69.9818 3.13409Z" fill="#3E459C"/>
</svg>
