<svg width="211" height="63" viewBox="0 0 211 63" fill="none" xmlns="http://www.w3.org/2000/svg">
<path d="M69.1187 61.4953C69.9445 61.4298 70.5608 60.7072 70.4953 59.8813L69.4272 46.4236C69.3617 45.5978 68.6391 44.9815 67.8133 45.047C66.9874 45.1126 66.3711 45.8352 66.4366 46.661L67.386 58.6234L55.4236 59.5728C54.5978 59.6383 53.9815 60.3609 54.047 61.1867C54.1126 62.0126 54.8352 62.6289 55.661 62.5634L69.1187 61.4953ZM0.0265801 3.14125L68.0266 61.1413L69.9734 58.8587L1.97342 0.858749L0.0265801 3.14125Z" fill="#3E459C"/>
<path d="M142.892 61.4961C142.066 61.4366 141.444 60.7186 141.504 59.8923L142.473 46.4271C142.533 45.6008 143.251 44.9792 144.077 45.0387C144.903 45.0982 145.525 45.8163 145.466 46.6426L144.604 58.6116L156.573 59.4734C157.399 59.5329 158.021 60.2509 157.961 61.0772C157.902 61.9035 157.184 62.5251 156.357 62.4656L142.892 61.4961ZM210.982 3.13409L143.982 61.1341L142.018 58.8659L209.018 0.865908L210.982 3.13409Z" fill="#3E459C"/>
</svg>
